<mxfile host="app.diagrams.net" modified="2023-12-08T04:15:08.482Z" agent="Mozilla/5.0 (Windows NT 10.0; Win64; x64) AppleWebKit/537.36 (KHTML, like Gecko) Chrome/119.0.0.0 Safari/537.36" etag="qZYdzJmDg8ewpy2RfDL_" version="22.1.7" type="device">
  <diagram id="R2lEEEUBdFMjLlhIrx00" name="Page-1">
    <mxGraphModel dx="4536" dy="2916" grid="1" gridSize="10" guides="1" tooltips="1" connect="1" arrows="1" fold="1" page="0" pageScale="1" pageWidth="850" pageHeight="1100" math="0" shadow="0" extFonts="Permanent Marker^https://fonts.googleapis.com/css?family=Permanent+Marker">
      <root>
        <mxCell id="0" />
        <mxCell id="1" parent="0" />
        <mxCell id="473TaDn3XzCNETPL2ArG-1" value="State" style="rounded=0;whiteSpace=wrap;html=1;" parent="1" vertex="1">
          <mxGeometry x="-720" y="-530" width="120" height="60" as="geometry" />
        </mxCell>
        <mxCell id="473TaDn3XzCNETPL2ArG-2" value="" style="endArrow=none;html=1;rounded=0;exitX=0;exitY=1;exitDx=0;exitDy=0;entryX=1;entryY=0;entryDx=0;entryDy=0;" parent="1" source="473TaDn3XzCNETPL2ArG-1" target="473TaDn3XzCNETPL2ArG-3" edge="1">
          <mxGeometry width="50" height="50" relative="1" as="geometry">
            <mxPoint x="-500" y="-530" as="sourcePoint" />
            <mxPoint x="-560" y="-540" as="targetPoint" />
            <Array as="points" />
          </mxGeometry>
        </mxCell>
        <mxCell id="473TaDn3XzCNETPL2ArG-3" value="&lt;u&gt;StateID&lt;/u&gt;" style="ellipse;whiteSpace=wrap;html=1;" parent="1" vertex="1">
          <mxGeometry x="-820" y="-442" width="80" height="60" as="geometry" />
        </mxCell>
        <mxCell id="473TaDn3XzCNETPL2ArG-4" value="" style="endArrow=none;html=1;rounded=0;exitX=0;exitY=0.5;exitDx=0;exitDy=0;entryX=1;entryY=0.5;entryDx=0;entryDy=0;" parent="1" source="473TaDn3XzCNETPL2ArG-1" target="473TaDn3XzCNETPL2ArG-5" edge="1">
          <mxGeometry width="50" height="50" relative="1" as="geometry">
            <mxPoint x="-440" y="-340" as="sourcePoint" />
            <mxPoint x="-671" y="-580" as="targetPoint" />
            <Array as="points" />
          </mxGeometry>
        </mxCell>
        <mxCell id="473TaDn3XzCNETPL2ArG-5" value="StateName" style="ellipse;whiteSpace=wrap;html=1;" parent="1" vertex="1">
          <mxGeometry x="-880" y="-530" width="90" height="60" as="geometry" />
        </mxCell>
        <mxCell id="2HEuMlSUGqO9Uci1BNy_-1" style="edgeStyle=orthogonalEdgeStyle;rounded=0;orthogonalLoop=1;jettySize=auto;html=1;entryX=0;entryY=0.5;entryDx=0;entryDy=0;exitX=0.5;exitY=1;exitDx=0;exitDy=0;endArrow=none;endFill=0;" parent="1" source="2HEuMlSUGqO9Uci1BNy_-3" target="dOKvvRetDitsmnMjPRdH-35" edge="1">
          <mxGeometry relative="1" as="geometry">
            <mxPoint x="-1150" y="880" as="targetPoint" />
            <mxPoint x="-1220" y="-110" as="sourcePoint" />
            <Array as="points">
              <mxPoint x="-1250" y="154" />
              <mxPoint x="-1250" y="740" />
              <mxPoint x="-535" y="740" />
            </Array>
          </mxGeometry>
        </mxCell>
        <mxCell id="dph8iHrBrkBYRlTdIY49-38" value="M" style="edgeLabel;html=1;align=center;verticalAlign=middle;resizable=0;points=[];" parent="2HEuMlSUGqO9Uci1BNy_-1" vertex="1" connectable="0">
          <mxGeometry x="-0.5199" relative="1" as="geometry">
            <mxPoint y="2" as="offset" />
          </mxGeometry>
        </mxCell>
        <mxCell id="473TaDn3XzCNETPL2ArG-11" value="Location" style="rounded=0;whiteSpace=wrap;html=1;" parent="1" vertex="1">
          <mxGeometry x="138" y="-550" width="120" height="60" as="geometry" />
        </mxCell>
        <mxCell id="473TaDn3XzCNETPL2ArG-12" value="" style="endArrow=none;html=1;rounded=0;exitX=1;exitY=0.25;exitDx=0;exitDy=0;" parent="1" source="473TaDn3XzCNETPL2ArG-13" edge="1">
          <mxGeometry width="50" height="50" relative="1" as="geometry">
            <mxPoint x="398" y="-650" as="sourcePoint" />
            <mxPoint x="338" y="-660" as="targetPoint" />
            <Array as="points" />
          </mxGeometry>
        </mxCell>
        <mxCell id="473TaDn3XzCNETPL2ArG-14" value="" style="endArrow=none;html=1;rounded=0;exitX=0.623;exitY=0.018;exitDx=0;exitDy=0;exitPerimeter=0;" parent="1" source="473TaDn3XzCNETPL2ArG-11" target="473TaDn3XzCNETPL2ArG-15" edge="1">
          <mxGeometry width="50" height="50" relative="1" as="geometry">
            <mxPoint x="236" y="-550" as="sourcePoint" />
            <mxPoint x="227" y="-700" as="targetPoint" />
            <Array as="points" />
          </mxGeometry>
        </mxCell>
        <mxCell id="473TaDn3XzCNETPL2ArG-15" value="&lt;u&gt;LocationID&lt;/u&gt;" style="ellipse;whiteSpace=wrap;html=1;" parent="1" vertex="1">
          <mxGeometry x="176.16" y="-720" width="92" height="60" as="geometry" />
        </mxCell>
        <mxCell id="473TaDn3XzCNETPL2ArG-16" value="" style="endArrow=none;html=1;rounded=0;exitX=0.859;exitY=-0.044;exitDx=0;exitDy=0;exitPerimeter=0;" parent="1" source="473TaDn3XzCNETPL2ArG-11" target="473TaDn3XzCNETPL2ArG-13" edge="1">
          <mxGeometry width="50" height="50" relative="1" as="geometry">
            <mxPoint x="258" y="-535" as="sourcePoint" />
            <mxPoint x="338" y="-660" as="targetPoint" />
            <Array as="points" />
          </mxGeometry>
        </mxCell>
        <mxCell id="473TaDn3XzCNETPL2ArG-13" value="Name" style="ellipse;whiteSpace=wrap;html=1;" parent="1" vertex="1">
          <mxGeometry x="258" y="-680" width="90" height="60" as="geometry" />
        </mxCell>
        <mxCell id="473TaDn3XzCNETPL2ArG-17" value="ContactName" style="ellipse;whiteSpace=wrap;html=1;" parent="1" vertex="1">
          <mxGeometry x="-10" y="-442" width="90" height="70" as="geometry" />
        </mxCell>
        <mxCell id="473TaDn3XzCNETPL2ArG-18" value="" style="endArrow=none;html=1;rounded=0;entryX=0.11;entryY=-0.003;entryDx=0;entryDy=0;entryPerimeter=0;exitX=1;exitY=1;exitDx=0;exitDy=0;" parent="1" source="473TaDn3XzCNETPL2ArG-19" target="473TaDn3XzCNETPL2ArG-11" edge="1">
          <mxGeometry width="50" height="50" relative="1" as="geometry">
            <mxPoint x="103.14531382880705" y="-622.233591313854" as="sourcePoint" />
            <mxPoint x="160" y="-560" as="targetPoint" />
            <Array as="points" />
          </mxGeometry>
        </mxCell>
        <mxCell id="473TaDn3XzCNETPL2ArG-19" value="ContactPhone" style="ellipse;whiteSpace=wrap;html=1;" parent="1" vertex="1">
          <mxGeometry x="10" y="-660" width="80" height="60" as="geometry" />
        </mxCell>
        <mxCell id="473TaDn3XzCNETPL2ArG-21" value="" style="endArrow=none;html=1;rounded=0;entryX=1;entryY=0;entryDx=0;entryDy=0;exitX=0.206;exitY=0.989;exitDx=0;exitDy=0;exitPerimeter=0;" parent="1" source="473TaDn3XzCNETPL2ArG-11" target="473TaDn3XzCNETPL2ArG-17" edge="1">
          <mxGeometry width="50" height="50" relative="1" as="geometry">
            <mxPoint x="398" y="-590" as="sourcePoint" />
            <mxPoint x="448" y="-640" as="targetPoint" />
          </mxGeometry>
        </mxCell>
        <mxCell id="473TaDn3XzCNETPL2ArG-23" value="" style="endArrow=none;html=1;rounded=0;exitX=0.3;exitY=0.143;exitDx=0;exitDy=0;exitPerimeter=0;" parent="1" source="473TaDn3XzCNETPL2ArG-24" edge="1">
          <mxGeometry width="50" height="50" relative="1" as="geometry">
            <mxPoint x="228" y="-439" as="sourcePoint" />
            <mxPoint x="228" y="-490" as="targetPoint" />
            <Array as="points" />
          </mxGeometry>
        </mxCell>
        <mxCell id="473TaDn3XzCNETPL2ArG-24" value="LocationSize" style="ellipse;whiteSpace=wrap;html=1;" parent="1" vertex="1">
          <mxGeometry x="245.67000000000002" y="-430" width="90" height="70" as="geometry" />
        </mxCell>
        <mxCell id="473TaDn3XzCNETPL2ArG-28" value="" style="endArrow=none;html=1;rounded=0;entryX=1;entryY=0.75;entryDx=0;entryDy=0;exitX=0.015;exitY=0.37;exitDx=0;exitDy=0;exitPerimeter=0;" parent="1" source="473TaDn3XzCNETPL2ArG-30" target="473TaDn3XzCNETPL2ArG-11" edge="1">
          <mxGeometry width="50" height="50" relative="1" as="geometry">
            <mxPoint x="330" y="-505" as="sourcePoint" />
            <mxPoint x="508" y="-525" as="targetPoint" />
            <Array as="points" />
          </mxGeometry>
        </mxCell>
        <mxCell id="473TaDn3XzCNETPL2ArG-29" value="LocationTypeID" style="ellipse;whiteSpace=wrap;html=1;" parent="1" vertex="1">
          <mxGeometry x="335.67" y="-610" width="90" height="60" as="geometry" />
        </mxCell>
        <mxCell id="473TaDn3XzCNETPL2ArG-30" value="StateID" style="ellipse;whiteSpace=wrap;html=1;" parent="1" vertex="1">
          <mxGeometry x="335.67" y="-490" width="90" height="60" as="geometry" />
        </mxCell>
        <mxCell id="473TaDn3XzCNETPL2ArG-31" value="" style="endArrow=none;html=1;rounded=0;entryX=0;entryY=1;entryDx=0;entryDy=0;exitX=1;exitY=0.25;exitDx=0;exitDy=0;" parent="1" source="473TaDn3XzCNETPL2ArG-11" target="473TaDn3XzCNETPL2ArG-29" edge="1">
          <mxGeometry width="50" height="50" relative="1" as="geometry">
            <mxPoint x="278" y="-450" as="sourcePoint" />
            <mxPoint x="328" y="-500" as="targetPoint" />
          </mxGeometry>
        </mxCell>
        <mxCell id="473TaDn3XzCNETPL2ArG-32" value="" style="endArrow=none;html=1;rounded=0;exitX=1;exitY=0.5;exitDx=0;exitDy=0;" parent="1" source="473TaDn3XzCNETPL2ArG-33" target="473TaDn3XzCNETPL2ArG-11" edge="1">
          <mxGeometry width="50" height="50" relative="1" as="geometry">
            <mxPoint x="68" y="-460" as="sourcePoint" />
            <mxPoint x="328" y="-500" as="targetPoint" />
          </mxGeometry>
        </mxCell>
        <mxCell id="473TaDn3XzCNETPL2ArG-33" value="ContactEmail" style="ellipse;whiteSpace=wrap;html=1;" parent="1" vertex="1">
          <mxGeometry x="-50" y="-600" width="90" height="60" as="geometry" />
        </mxCell>
        <mxCell id="473TaDn3XzCNETPL2ArG-36" value="Establishment&lt;br&gt;Date" style="ellipse;whiteSpace=wrap;html=1;" parent="1" vertex="1">
          <mxGeometry x="80" y="-410" width="90" height="70" as="geometry" />
        </mxCell>
        <mxCell id="473TaDn3XzCNETPL2ArG-37" value="" style="endArrow=none;html=1;rounded=0;exitX=0.675;exitY=0.018;exitDx=0;exitDy=0;entryX=0.25;entryY=1;entryDx=0;entryDy=0;exitPerimeter=0;" parent="1" source="473TaDn3XzCNETPL2ArG-36" target="473TaDn3XzCNETPL2ArG-11" edge="1">
          <mxGeometry width="50" height="50" relative="1" as="geometry">
            <mxPoint x="163" y="-430" as="sourcePoint" />
            <mxPoint x="328" y="-460" as="targetPoint" />
          </mxGeometry>
        </mxCell>
        <mxCell id="473TaDn3XzCNETPL2ArG-43" value="Animal" style="rounded=0;whiteSpace=wrap;html=1;" parent="1" vertex="1">
          <mxGeometry x="79.99999999999996" y="419.99999999999994" width="120" height="60" as="geometry" />
        </mxCell>
        <mxCell id="473TaDn3XzCNETPL2ArG-44" value="" style="endArrow=none;html=1;rounded=0;exitX=1;exitY=0.25;exitDx=0;exitDy=0;" parent="1" source="473TaDn3XzCNETPL2ArG-48" edge="1">
          <mxGeometry width="50" height="50" relative="1" as="geometry">
            <mxPoint x="365" y="345" as="sourcePoint" />
            <mxPoint x="305" y="335" as="targetPoint" />
            <Array as="points" />
          </mxGeometry>
        </mxCell>
        <mxCell id="473TaDn3XzCNETPL2ArG-45" value="" style="endArrow=none;html=1;rounded=0;exitX=0.75;exitY=0;exitDx=0;exitDy=0;entryX=0.5;entryY=1;entryDx=0;entryDy=0;" parent="1" source="473TaDn3XzCNETPL2ArG-43" target="473TaDn3XzCNETPL2ArG-46" edge="1">
          <mxGeometry width="50" height="50" relative="1" as="geometry">
            <mxPoint x="425" y="535" as="sourcePoint" />
            <mxPoint x="194" y="295" as="targetPoint" />
            <Array as="points" />
          </mxGeometry>
        </mxCell>
        <mxCell id="473TaDn3XzCNETPL2ArG-46" value="&lt;u&gt;AnimalID&lt;/u&gt;" style="ellipse;whiteSpace=wrap;html=1;" parent="1" vertex="1">
          <mxGeometry x="135" y="300" width="90" height="60" as="geometry" />
        </mxCell>
        <mxCell id="473TaDn3XzCNETPL2ArG-47" value="" style="endArrow=none;html=1;rounded=0;exitX=1;exitY=0;exitDx=0;exitDy=0;" parent="1" source="473TaDn3XzCNETPL2ArG-43" target="473TaDn3XzCNETPL2ArG-48" edge="1">
          <mxGeometry width="50" height="50" relative="1" as="geometry">
            <mxPoint x="225" y="460" as="sourcePoint" />
            <mxPoint x="305" y="335" as="targetPoint" />
            <Array as="points" />
          </mxGeometry>
        </mxCell>
        <mxCell id="473TaDn3XzCNETPL2ArG-48" value="Species" style="ellipse;whiteSpace=wrap;html=1;" parent="1" vertex="1">
          <mxGeometry x="235" y="320" width="90" height="60" as="geometry" />
        </mxCell>
        <mxCell id="473TaDn3XzCNETPL2ArG-49" value="Weight" style="ellipse;whiteSpace=wrap;html=1;" parent="1" vertex="1">
          <mxGeometry x="-35" y="480" width="90" height="70" as="geometry" />
        </mxCell>
        <mxCell id="473TaDn3XzCNETPL2ArG-50" value="" style="endArrow=none;html=1;rounded=0;" parent="1" target="473TaDn3XzCNETPL2ArG-43" edge="1">
          <mxGeometry width="50" height="50" relative="1" as="geometry">
            <mxPoint x="55.004918099013025" y="367.08161905941614" as="sourcePoint" />
            <mxPoint x="54.66999999999996" y="381.91" as="targetPoint" />
            <Array as="points" />
          </mxGeometry>
        </mxCell>
        <mxCell id="473TaDn3XzCNETPL2ArG-51" value="Habitat" style="ellipse;whiteSpace=wrap;html=1;" parent="1" vertex="1">
          <mxGeometry x="25" y="320" width="100" height="60" as="geometry" />
        </mxCell>
        <mxCell id="473TaDn3XzCNETPL2ArG-52" value="" style="endArrow=none;html=1;rounded=0;entryX=0.978;entryY=0.214;entryDx=0;entryDy=0;entryPerimeter=0;" parent="1" source="473TaDn3XzCNETPL2ArG-43" target="473TaDn3XzCNETPL2ArG-49" edge="1">
          <mxGeometry width="50" height="50" relative="1" as="geometry">
            <mxPoint x="365" y="405" as="sourcePoint" />
            <mxPoint x="415" y="355" as="targetPoint" />
          </mxGeometry>
        </mxCell>
        <mxCell id="473TaDn3XzCNETPL2ArG-54" value="" style="endArrow=none;html=1;rounded=0;exitX=0.3;exitY=0.143;exitDx=0;exitDy=0;exitPerimeter=0;entryX=0.844;entryY=0.985;entryDx=0;entryDy=0;entryPerimeter=0;" parent="1" source="473TaDn3XzCNETPL2ArG-55" target="473TaDn3XzCNETPL2ArG-43" edge="1">
          <mxGeometry width="50" height="50" relative="1" as="geometry">
            <mxPoint x="195" y="556" as="sourcePoint" />
            <mxPoint x="195" y="505" as="targetPoint" />
            <Array as="points" />
          </mxGeometry>
        </mxCell>
        <mxCell id="473TaDn3XzCNETPL2ArG-55" value="Average&lt;br&gt;Lifespan" style="ellipse;whiteSpace=wrap;html=1;" parent="1" vertex="1">
          <mxGeometry x="191.32999999999998" y="550" width="90" height="70" as="geometry" />
        </mxCell>
        <mxCell id="473TaDn3XzCNETPL2ArG-57" value="" style="endArrow=none;html=1;rounded=0;exitX=0.222;exitY=0.117;exitDx=0;exitDy=0;entryX=1;entryY=0.75;entryDx=0;entryDy=0;exitPerimeter=0;" parent="1" source="473TaDn3XzCNETPL2ArG-59" target="473TaDn3XzCNETPL2ArG-43" edge="1">
          <mxGeometry width="50" height="50" relative="1" as="geometry">
            <mxPoint x="535" y="480" as="sourcePoint" />
            <mxPoint x="475" y="470" as="targetPoint" />
            <Array as="points" />
          </mxGeometry>
        </mxCell>
        <mxCell id="473TaDn3XzCNETPL2ArG-58" value="ScientificName" style="ellipse;whiteSpace=wrap;html=1;" parent="1" vertex="1">
          <mxGeometry x="295" y="370" width="90" height="60" as="geometry" />
        </mxCell>
        <mxCell id="473TaDn3XzCNETPL2ArG-59" value="Diet" style="ellipse;whiteSpace=wrap;html=1;" parent="1" vertex="1">
          <mxGeometry x="285" y="505" width="90" height="60" as="geometry" />
        </mxCell>
        <mxCell id="473TaDn3XzCNETPL2ArG-60" value="" style="endArrow=none;html=1;rounded=0;entryX=0.011;entryY=0.617;entryDx=0;entryDy=0;entryPerimeter=0;exitX=1;exitY=0.25;exitDx=0;exitDy=0;" parent="1" source="473TaDn3XzCNETPL2ArG-43" target="473TaDn3XzCNETPL2ArG-58" edge="1">
          <mxGeometry width="50" height="50" relative="1" as="geometry">
            <mxPoint x="245" y="545" as="sourcePoint" />
            <mxPoint x="295" y="495" as="targetPoint" />
          </mxGeometry>
        </mxCell>
        <mxCell id="473TaDn3XzCNETPL2ArG-61" value="" style="endArrow=none;html=1;rounded=0;entryX=0;entryY=0;entryDx=0;entryDy=0;exitX=0.956;exitY=0.67;exitDx=0;exitDy=0;exitPerimeter=0;" parent="1" source="473TaDn3XzCNETPL2ArG-62" target="473TaDn3XzCNETPL2ArG-43" edge="1">
          <mxGeometry width="50" height="50" relative="1" as="geometry">
            <mxPoint x="35" y="535" as="sourcePoint" />
            <mxPoint x="295" y="495" as="targetPoint" />
          </mxGeometry>
        </mxCell>
        <mxCell id="473TaDn3XzCNETPL2ArG-62" value="Size" style="ellipse;whiteSpace=wrap;html=1;" parent="1" vertex="1">
          <mxGeometry x="-80" y="350" width="90" height="60" as="geometry" />
        </mxCell>
        <mxCell id="473TaDn3XzCNETPL2ArG-65" value="Conservation&lt;br&gt;StatusID" style="ellipse;whiteSpace=wrap;html=1;" parent="1" vertex="1">
          <mxGeometry x="40" y="550" width="90" height="70" as="geometry" />
        </mxCell>
        <mxCell id="473TaDn3XzCNETPL2ArG-66" value="" style="endArrow=none;html=1;rounded=0;exitX=0.5;exitY=0;exitDx=0;exitDy=0;entryX=0.383;entryY=1.017;entryDx=0;entryDy=0;entryPerimeter=0;" parent="1" source="473TaDn3XzCNETPL2ArG-65" target="473TaDn3XzCNETPL2ArG-43" edge="1">
          <mxGeometry width="50" height="50" relative="1" as="geometry">
            <mxPoint x="245" y="585" as="sourcePoint" />
            <mxPoint x="295" y="535" as="targetPoint" />
          </mxGeometry>
        </mxCell>
        <mxCell id="473TaDn3XzCNETPL2ArG-67" value="AnimalHabitat" style="rounded=0;whiteSpace=wrap;html=1;" parent="1" vertex="1">
          <mxGeometry x="-529.3300000000002" y="-274.09000000000003" width="120" height="60" as="geometry" />
        </mxCell>
        <mxCell id="473TaDn3XzCNETPL2ArG-70" value="&lt;u&gt;AnimalHabitat&lt;br&gt;ID&lt;/u&gt;" style="ellipse;whiteSpace=wrap;html=1;" parent="1" vertex="1">
          <mxGeometry x="-595.3300000000002" y="-357" width="90" height="60" as="geometry" />
        </mxCell>
        <mxCell id="473TaDn3XzCNETPL2ArG-71" value="" style="endArrow=none;html=1;rounded=0;" parent="1" target="473TaDn3XzCNETPL2ArG-72" edge="1">
          <mxGeometry width="50" height="50" relative="1" as="geometry">
            <mxPoint x="-420.0000000000001" y="-277" as="sourcePoint" />
            <mxPoint x="-310" y="-372" as="targetPoint" />
            <Array as="points" />
          </mxGeometry>
        </mxCell>
        <mxCell id="473TaDn3XzCNETPL2ArG-72" value="AnimalID" style="ellipse;whiteSpace=wrap;html=1;" parent="1" vertex="1">
          <mxGeometry x="-455.33000000000015" y="-370" width="90" height="60" as="geometry" />
        </mxCell>
        <mxCell id="473TaDn3XzCNETPL2ArG-74" value="" style="endArrow=none;html=1;rounded=0;exitX=0.767;exitY=0.95;exitDx=0;exitDy=0;exitPerimeter=0;" parent="1" source="473TaDn3XzCNETPL2ArG-70" target="473TaDn3XzCNETPL2ArG-67" edge="1">
          <mxGeometry width="50" height="50" relative="1" as="geometry">
            <mxPoint x="-559.9950819009871" y="-339.9183809405838" as="sourcePoint" />
            <mxPoint x="-560.3300000000002" y="-325.0899999999999" as="targetPoint" />
            <Array as="points" />
          </mxGeometry>
        </mxCell>
        <mxCell id="473TaDn3XzCNETPL2ArG-75" value="Habitat" style="ellipse;whiteSpace=wrap;html=1;" parent="1" vertex="1">
          <mxGeometry x="-590.0000000000001" y="-167" width="100" height="60" as="geometry" />
        </mxCell>
        <mxCell id="473TaDn3XzCNETPL2ArG-77" value="" style="endArrow=none;html=1;rounded=0;entryX=0.844;entryY=0.985;entryDx=0;entryDy=0;entryPerimeter=0;exitX=0.5;exitY=0;exitDx=0;exitDy=0;" parent="1" source="473TaDn3XzCNETPL2ArG-78" target="473TaDn3XzCNETPL2ArG-67" edge="1">
          <mxGeometry width="50" height="50" relative="1" as="geometry">
            <mxPoint x="-415.33000000000004" y="-152" as="sourcePoint" />
            <mxPoint x="-420.0000000000001" y="-202" as="targetPoint" />
            <Array as="points" />
          </mxGeometry>
        </mxCell>
        <mxCell id="473TaDn3XzCNETPL2ArG-78" value="DateAcquired" style="ellipse;whiteSpace=wrap;html=1;" parent="1" vertex="1">
          <mxGeometry x="-455.33000000000015" y="-147" width="90" height="70" as="geometry" />
        </mxCell>
        <mxCell id="473TaDn3XzCNETPL2ArG-79" value="" style="endArrow=none;html=1;rounded=0;exitX=0.033;exitY=0.333;exitDx=0;exitDy=0;entryX=1;entryY=0.75;entryDx=0;entryDy=0;exitPerimeter=0;" parent="1" source="473TaDn3XzCNETPL2ArG-81" target="473TaDn3XzCNETPL2ArG-67" edge="1">
          <mxGeometry width="50" height="50" relative="1" as="geometry">
            <mxPoint x="-80.00000000000003" y="-227" as="sourcePoint" />
            <mxPoint x="-140.00000000000003" y="-237" as="targetPoint" />
            <Array as="points" />
          </mxGeometry>
        </mxCell>
        <mxCell id="473TaDn3XzCNETPL2ArG-80" value="LocationID" style="ellipse;whiteSpace=wrap;html=1;" parent="1" vertex="1">
          <mxGeometry x="-680.0000000000001" y="-274.09000000000003" width="90" height="60" as="geometry" />
        </mxCell>
        <mxCell id="473TaDn3XzCNETPL2ArG-81" value="Count" style="ellipse;whiteSpace=wrap;html=1;" parent="1" vertex="1">
          <mxGeometry x="-345.33000000000015" y="-217" width="90" height="60" as="geometry" />
        </mxCell>
        <mxCell id="473TaDn3XzCNETPL2ArG-82" value="" style="endArrow=none;html=1;rounded=0;exitX=0;exitY=0.5;exitDx=0;exitDy=0;entryX=1;entryY=0.5;entryDx=0;entryDy=0;" parent="1" source="473TaDn3XzCNETPL2ArG-67" target="473TaDn3XzCNETPL2ArG-80" edge="1">
          <mxGeometry width="50" height="50" relative="1" as="geometry">
            <mxPoint x="-370.0000000000001" y="-162" as="sourcePoint" />
            <mxPoint x="-624.6600000000001" y="-247" as="targetPoint" />
          </mxGeometry>
        </mxCell>
        <mxCell id="473TaDn3XzCNETPL2ArG-85" value="" style="endArrow=none;html=1;rounded=0;entryX=0.383;entryY=1.017;entryDx=0;entryDy=0;entryPerimeter=0;exitX=0.74;exitY=0.067;exitDx=0;exitDy=0;exitPerimeter=0;" parent="1" source="473TaDn3XzCNETPL2ArG-75" target="473TaDn3XzCNETPL2ArG-67" edge="1">
          <mxGeometry width="50" height="50" relative="1" as="geometry">
            <mxPoint x="-510.0000000000001" y="-167" as="sourcePoint" />
            <mxPoint x="-320.0000000000001" y="-172" as="targetPoint" />
          </mxGeometry>
        </mxCell>
        <mxCell id="473TaDn3XzCNETPL2ArG-99" value="ConservationStatus" style="rounded=0;whiteSpace=wrap;html=1;" parent="1" vertex="1">
          <mxGeometry x="830" y="705" width="120" height="60" as="geometry" />
        </mxCell>
        <mxCell id="473TaDn3XzCNETPL2ArG-100" value="" style="endArrow=none;html=1;rounded=0;exitX=1;exitY=0.25;exitDx=0;exitDy=0;" parent="1" source="473TaDn3XzCNETPL2ArG-99" target="473TaDn3XzCNETPL2ArG-101" edge="1">
          <mxGeometry width="50" height="50" relative="1" as="geometry">
            <mxPoint x="1045" y="695" as="sourcePoint" />
            <mxPoint x="995" y="715" as="targetPoint" />
            <Array as="points" />
          </mxGeometry>
        </mxCell>
        <mxCell id="473TaDn3XzCNETPL2ArG-101" value="Conservation&lt;br&gt;Status" style="ellipse;whiteSpace=wrap;html=1;" parent="1" vertex="1">
          <mxGeometry x="985" y="695" width="80" height="60" as="geometry" />
        </mxCell>
        <mxCell id="473TaDn3XzCNETPL2ArG-102" value="" style="endArrow=none;html=1;rounded=0;exitX=0.5;exitY=0;exitDx=0;exitDy=0;entryX=0.5;entryY=1;entryDx=0;entryDy=0;" parent="1" source="473TaDn3XzCNETPL2ArG-99" target="473TaDn3XzCNETPL2ArG-103" edge="1">
          <mxGeometry width="50" height="50" relative="1" as="geometry">
            <mxPoint x="1105" y="885" as="sourcePoint" />
            <mxPoint x="874" y="645" as="targetPoint" />
            <Array as="points" />
          </mxGeometry>
        </mxCell>
        <mxCell id="473TaDn3XzCNETPL2ArG-103" value="&lt;u&gt;Conservation&lt;br&gt;StatusID&lt;/u&gt;" style="ellipse;whiteSpace=wrap;html=1;" parent="1" vertex="1">
          <mxGeometry x="845" y="595" width="90" height="60" as="geometry" />
        </mxCell>
        <mxCell id="473TaDn3XzCNETPL2ArG-110" value="Wildlife&lt;br&gt;HomeFunding" style="rounded=0;whiteSpace=wrap;html=1;" parent="1" vertex="1">
          <mxGeometry x="486.3399999999999" y="-1064.0900000000001" width="120" height="60" as="geometry" />
        </mxCell>
        <mxCell id="473TaDn3XzCNETPL2ArG-111" value="TotalFunding" style="ellipse;whiteSpace=wrap;html=1;" parent="1" vertex="1">
          <mxGeometry x="295" y="-1050" width="100" height="60" as="geometry" />
        </mxCell>
        <mxCell id="473TaDn3XzCNETPL2ArG-112" value="" style="endArrow=none;html=1;rounded=0;exitX=0.3;exitY=0.143;exitDx=0;exitDy=0;exitPerimeter=0;entryX=0.25;entryY=1;entryDx=0;entryDy=0;" parent="1" source="473TaDn3XzCNETPL2ArG-113" target="473TaDn3XzCNETPL2ArG-110" edge="1">
          <mxGeometry width="50" height="50" relative="1" as="geometry">
            <mxPoint x="595.67" y="-941" as="sourcePoint" />
            <mxPoint x="595.67" y="-992" as="targetPoint" />
            <Array as="points" />
          </mxGeometry>
        </mxCell>
        <mxCell id="473TaDn3XzCNETPL2ArG-113" value="Year" style="ellipse;whiteSpace=wrap;html=1;" parent="1" vertex="1">
          <mxGeometry x="405" y="-952" width="90" height="70" as="geometry" />
        </mxCell>
        <mxCell id="473TaDn3XzCNETPL2ArG-114" value="" style="endArrow=none;html=1;rounded=0;exitX=0.033;exitY=0.333;exitDx=0;exitDy=0;entryX=0;entryY=0;entryDx=0;entryDy=0;exitPerimeter=0;" parent="1" source="473TaDn3XzCNETPL2ArG-115" target="473TaDn3XzCNETPL2ArG-110" edge="1">
          <mxGeometry width="50" height="50" relative="1" as="geometry">
            <mxPoint x="935.67" y="-1017" as="sourcePoint" />
            <mxPoint x="875.67" y="-1027" as="targetPoint" />
            <Array as="points" />
          </mxGeometry>
        </mxCell>
        <mxCell id="473TaDn3XzCNETPL2ArG-115" value="LocationID" style="ellipse;whiteSpace=wrap;html=1;" parent="1" vertex="1">
          <mxGeometry x="348" y="-1180" width="90" height="60" as="geometry" />
        </mxCell>
        <mxCell id="473TaDn3XzCNETPL2ArG-116" value="" style="endArrow=none;html=1;rounded=0;entryX=0.5;entryY=1;entryDx=0;entryDy=0;exitX=0.75;exitY=0;exitDx=0;exitDy=0;" parent="1" source="473TaDn3XzCNETPL2ArG-110" target="473TaDn3XzCNETPL2ArG-118" edge="1">
          <mxGeometry width="50" height="50" relative="1" as="geometry">
            <mxPoint x="645.67" y="-952" as="sourcePoint" />
            <mxPoint x="676.67" y="-1070" as="targetPoint" />
          </mxGeometry>
        </mxCell>
        <mxCell id="473TaDn3XzCNETPL2ArG-117" value="" style="endArrow=none;html=1;rounded=0;entryX=0;entryY=0.5;entryDx=0;entryDy=0;exitX=1;exitY=0.5;exitDx=0;exitDy=0;" parent="1" source="473TaDn3XzCNETPL2ArG-111" target="473TaDn3XzCNETPL2ArG-110" edge="1">
          <mxGeometry width="50" height="50" relative="1" as="geometry">
            <mxPoint x="505.66999999999996" y="-950" as="sourcePoint" />
            <mxPoint x="695.67" y="-962" as="targetPoint" />
          </mxGeometry>
        </mxCell>
        <mxCell id="473TaDn3XzCNETPL2ArG-118" value="&lt;u&gt;FundingID&lt;/u&gt;" style="ellipse;whiteSpace=wrap;html=1;" parent="1" vertex="1">
          <mxGeometry x="563.16" y="-1180" width="90" height="60" as="geometry" />
        </mxCell>
        <mxCell id="473TaDn3XzCNETPL2ArG-119" value="ExpenditureArea" style="rounded=0;whiteSpace=wrap;html=1;" parent="1" vertex="1">
          <mxGeometry x="-1430" y="-964.0900000000003" width="120" height="60" as="geometry" />
        </mxCell>
        <mxCell id="473TaDn3XzCNETPL2ArG-120" value="" style="endArrow=none;html=1;rounded=0;exitX=1;exitY=0.25;exitDx=0;exitDy=0;" parent="1" source="473TaDn3XzCNETPL2ArG-119" edge="1">
          <mxGeometry width="50" height="50" relative="1" as="geometry">
            <mxPoint x="-1198" y="-964.0900000000003" as="sourcePoint" />
            <mxPoint x="-1258" y="-974.0900000000003" as="targetPoint" />
            <Array as="points" />
          </mxGeometry>
        </mxCell>
        <mxCell id="473TaDn3XzCNETPL2ArG-121" value="AreaName" style="ellipse;whiteSpace=wrap;html=1;" parent="1" vertex="1">
          <mxGeometry x="-1268" y="-1024.0900000000001" width="80" height="60" as="geometry" />
        </mxCell>
        <mxCell id="473TaDn3XzCNETPL2ArG-122" value="" style="endArrow=none;html=1;rounded=0;exitX=0.408;exitY=0.017;exitDx=0;exitDy=0;exitPerimeter=0;" parent="1" source="473TaDn3XzCNETPL2ArG-119" edge="1">
          <mxGeometry width="50" height="50" relative="1" as="geometry">
            <mxPoint x="-1138" y="-774.0900000000003" as="sourcePoint" />
            <mxPoint x="-1369" y="-1014.0900000000003" as="targetPoint" />
            <Array as="points" />
          </mxGeometry>
        </mxCell>
        <mxCell id="473TaDn3XzCNETPL2ArG-123" value="&lt;u&gt;Expenditure&lt;br&gt;AreaID&lt;/u&gt;" style="ellipse;whiteSpace=wrap;html=1;" parent="1" vertex="1">
          <mxGeometry x="-1420" y="-1064.0900000000001" width="90" height="60" as="geometry" />
        </mxCell>
        <mxCell id="473TaDn3XzCNETPL2ArG-125" value="LocationFacilities" style="rounded=0;whiteSpace=wrap;html=1;" parent="1" vertex="1">
          <mxGeometry x="150" y="60.819999999999936" width="120" height="60" as="geometry" />
        </mxCell>
        <mxCell id="473TaDn3XzCNETPL2ArG-126" value="Facility&lt;br&gt;Description" style="ellipse;whiteSpace=wrap;html=1;" parent="1" vertex="1">
          <mxGeometry x="170" y="153.91000000000008" width="100" height="60" as="geometry" />
        </mxCell>
        <mxCell id="473TaDn3XzCNETPL2ArG-127" value="" style="endArrow=none;html=1;rounded=0;exitX=0.3;exitY=0.143;exitDx=0;exitDy=0;exitPerimeter=0;entryX=0.844;entryY=0.985;entryDx=0;entryDy=0;entryPerimeter=0;" parent="1" source="473TaDn3XzCNETPL2ArG-128" target="473TaDn3XzCNETPL2ArG-125" edge="1">
          <mxGeometry width="50" height="50" relative="1" as="geometry">
            <mxPoint x="259.33000000000004" y="183.91000000000008" as="sourcePoint" />
            <mxPoint x="259.33000000000004" y="132.91000000000008" as="targetPoint" />
            <Array as="points" />
          </mxGeometry>
        </mxCell>
        <mxCell id="473TaDn3XzCNETPL2ArG-128" value="FacilityName" style="ellipse;whiteSpace=wrap;html=1;" parent="1" vertex="1">
          <mxGeometry x="281.33000000000004" y="146.0000000000001" width="90" height="70" as="geometry" />
        </mxCell>
        <mxCell id="473TaDn3XzCNETPL2ArG-129" value="" style="endArrow=none;html=1;rounded=0;exitX=0;exitY=0.5;exitDx=0;exitDy=0;entryX=1;entryY=0.75;entryDx=0;entryDy=0;" parent="1" source="473TaDn3XzCNETPL2ArG-130" target="473TaDn3XzCNETPL2ArG-125" edge="1">
          <mxGeometry width="50" height="50" relative="1" as="geometry">
            <mxPoint x="599.33" y="107.91000000000008" as="sourcePoint" />
            <mxPoint x="539.33" y="97.91000000000008" as="targetPoint" />
            <Array as="points" />
          </mxGeometry>
        </mxCell>
        <mxCell id="473TaDn3XzCNETPL2ArG-130" value="LocationID" style="ellipse;whiteSpace=wrap;html=1;" parent="1" vertex="1">
          <mxGeometry x="319.33000000000004" y="71.00000000000011" width="90" height="60" as="geometry" />
        </mxCell>
        <mxCell id="473TaDn3XzCNETPL2ArG-132" value="" style="endArrow=none;html=1;rounded=0;entryX=0.383;entryY=1.017;entryDx=0;entryDy=0;entryPerimeter=0;" parent="1" source="473TaDn3XzCNETPL2ArG-126" target="473TaDn3XzCNETPL2ArG-125" edge="1">
          <mxGeometry width="50" height="50" relative="1" as="geometry">
            <mxPoint x="164.33000000000004" y="177.91000000000008" as="sourcePoint" />
            <mxPoint x="359.33000000000004" y="162.91000000000008" as="targetPoint" />
          </mxGeometry>
        </mxCell>
        <mxCell id="473TaDn3XzCNETPL2ArG-133" value="&lt;u&gt;FacilityID&lt;/u&gt;" style="ellipse;whiteSpace=wrap;html=1;" parent="1" vertex="1">
          <mxGeometry x="304.33000000000004" y="-8.999999999999886" width="90" height="60" as="geometry" />
        </mxCell>
        <mxCell id="dOKvvRetDitsmnMjPRdH-1" value="" style="endArrow=none;html=1;rounded=0;exitX=0.022;exitY=0.65;exitDx=0;exitDy=0;entryX=0.75;entryY=0;entryDx=0;entryDy=0;exitPerimeter=0;" parent="1" source="473TaDn3XzCNETPL2ArG-133" target="473TaDn3XzCNETPL2ArG-125" edge="1">
          <mxGeometry width="50" height="50" relative="1" as="geometry">
            <mxPoint x="329.33000000000004" y="111" as="sourcePoint" />
            <mxPoint x="280.33000000000004" y="116" as="targetPoint" />
            <Array as="points" />
          </mxGeometry>
        </mxCell>
        <mxCell id="dOKvvRetDitsmnMjPRdH-4" value="Resources" style="rounded=0;whiteSpace=wrap;html=1;" parent="1" vertex="1">
          <mxGeometry x="-474.66999999999996" y="-1024.0900000000001" width="120" height="60" as="geometry" />
        </mxCell>
        <mxCell id="dOKvvRetDitsmnMjPRdH-5" value="" style="endArrow=none;html=1;rounded=0;exitX=0.3;exitY=0.143;exitDx=0;exitDy=0;exitPerimeter=0;entryX=0.844;entryY=0.985;entryDx=0;entryDy=0;entryPerimeter=0;" parent="1" source="dOKvvRetDitsmnMjPRdH-6" target="dOKvvRetDitsmnMjPRdH-4" edge="1">
          <mxGeometry width="50" height="50" relative="1" as="geometry">
            <mxPoint x="-365.34000000000003" y="-901" as="sourcePoint" />
            <mxPoint x="-365.34000000000003" y="-952" as="targetPoint" />
            <Array as="points" />
          </mxGeometry>
        </mxCell>
        <mxCell id="dOKvvRetDitsmnMjPRdH-6" value="quantity" style="ellipse;whiteSpace=wrap;html=1;" parent="1" vertex="1">
          <mxGeometry x="-385.34000000000003" y="-912" width="90" height="70" as="geometry" />
        </mxCell>
        <mxCell id="dOKvvRetDitsmnMjPRdH-7" value="" style="endArrow=none;html=1;rounded=0;exitX=0.033;exitY=0.333;exitDx=0;exitDy=0;entryX=1;entryY=0.75;entryDx=0;entryDy=0;exitPerimeter=0;" parent="1" source="dOKvvRetDitsmnMjPRdH-8" target="dOKvvRetDitsmnMjPRdH-4" edge="1">
          <mxGeometry width="50" height="50" relative="1" as="geometry">
            <mxPoint x="-25.340000000000146" y="-977" as="sourcePoint" />
            <mxPoint x="-85.34000000000015" y="-987" as="targetPoint" />
            <Array as="points" />
          </mxGeometry>
        </mxCell>
        <mxCell id="dOKvvRetDitsmnMjPRdH-8" value="resource_type" style="ellipse;whiteSpace=wrap;html=1;" parent="1" vertex="1">
          <mxGeometry x="-285.34000000000003" y="-977" width="90" height="60" as="geometry" />
        </mxCell>
        <mxCell id="dOKvvRetDitsmnMjPRdH-9" value="" style="endArrow=none;html=1;rounded=0;entryX=0.011;entryY=0.617;entryDx=0;entryDy=0;entryPerimeter=0;exitX=1;exitY=0.5;exitDx=0;exitDy=0;" parent="1" source="dOKvvRetDitsmnMjPRdH-4" edge="1">
          <mxGeometry width="50" height="50" relative="1" as="geometry">
            <mxPoint x="-315.34000000000003" y="-912" as="sourcePoint" />
            <mxPoint x="-284.34000000000003" y="-1030" as="targetPoint" />
          </mxGeometry>
        </mxCell>
        <mxCell id="dOKvvRetDitsmnMjPRdH-10" value="" style="endArrow=none;html=1;rounded=0;entryX=0.383;entryY=1.017;entryDx=0;entryDy=0;entryPerimeter=0;exitX=0.67;exitY=0.067;exitDx=0;exitDy=0;exitPerimeter=0;" parent="1" target="dOKvvRetDitsmnMjPRdH-4" edge="1">
          <mxGeometry width="50" height="50" relative="1" as="geometry">
            <mxPoint x="-468.34000000000003" y="-913" as="sourcePoint" />
            <mxPoint x="-265.34000000000003" y="-922" as="targetPoint" />
          </mxGeometry>
        </mxCell>
        <mxCell id="dOKvvRetDitsmnMjPRdH-11" value="location_id" style="ellipse;whiteSpace=wrap;html=1;" parent="1" vertex="1">
          <mxGeometry x="-305.34000000000003" y="-1080" width="90" height="60" as="geometry" />
        </mxCell>
        <mxCell id="dOKvvRetDitsmnMjPRdH-12" value="&lt;u&gt;resource_id&lt;/u&gt;" style="ellipse;whiteSpace=wrap;html=1;" parent="1" vertex="1">
          <mxGeometry x="-444.66999999999996" y="-1110" width="90" height="60" as="geometry" />
        </mxCell>
        <mxCell id="dOKvvRetDitsmnMjPRdH-13" value="" style="endArrow=none;html=1;rounded=0;exitX=0.437;exitY=0.983;exitDx=0;exitDy=0;exitPerimeter=0;entryX=0.586;entryY=-0.048;entryDx=0;entryDy=0;entryPerimeter=0;" parent="1" source="dOKvvRetDitsmnMjPRdH-12" target="dOKvvRetDitsmnMjPRdH-4" edge="1">
          <mxGeometry width="50" height="50" relative="1" as="geometry">
            <mxPoint x="-525.34" y="-960" as="sourcePoint" />
            <mxPoint x="-405.34000000000003" y="-1030" as="targetPoint" />
          </mxGeometry>
        </mxCell>
        <mxCell id="dOKvvRetDitsmnMjPRdH-14" value="resource_date" style="ellipse;whiteSpace=wrap;html=1;" parent="1" vertex="1">
          <mxGeometry x="-534.6700000000001" y="-929" width="90" height="70" as="geometry" />
        </mxCell>
        <mxCell id="dOKvvRetDitsmnMjPRdH-15" value="Animal&lt;br&gt;HealthRecords" style="rounded=0;whiteSpace=wrap;html=1;" parent="1" vertex="1">
          <mxGeometry x="920" y="-270" width="120" height="60" as="geometry" />
        </mxCell>
        <mxCell id="dOKvvRetDitsmnMjPRdH-16" value="" style="endArrow=none;html=1;rounded=0;exitX=1;exitY=0.25;exitDx=0;exitDy=0;" parent="1" source="dOKvvRetDitsmnMjPRdH-20" edge="1">
          <mxGeometry width="50" height="50" relative="1" as="geometry">
            <mxPoint x="1170" y="-360" as="sourcePoint" />
            <mxPoint x="1110" y="-370" as="targetPoint" />
            <Array as="points" />
          </mxGeometry>
        </mxCell>
        <mxCell id="dOKvvRetDitsmnMjPRdH-17" value="" style="endArrow=none;html=1;rounded=0;exitX=0.408;exitY=0.017;exitDx=0;exitDy=0;exitPerimeter=0;" parent="1" source="dOKvvRetDitsmnMjPRdH-15" target="dOKvvRetDitsmnMjPRdH-18" edge="1">
          <mxGeometry width="50" height="50" relative="1" as="geometry">
            <mxPoint x="1230" y="-170" as="sourcePoint" />
            <mxPoint x="999" y="-410" as="targetPoint" />
            <Array as="points" />
          </mxGeometry>
        </mxCell>
        <mxCell id="dOKvvRetDitsmnMjPRdH-18" value="&lt;u&gt;Health&lt;br&gt;RecordID&lt;/u&gt;" style="ellipse;whiteSpace=wrap;html=1;" parent="1" vertex="1">
          <mxGeometry x="920" y="-410" width="90" height="60" as="geometry" />
        </mxCell>
        <mxCell id="dOKvvRetDitsmnMjPRdH-19" value="" style="endArrow=none;html=1;rounded=0;exitX=1;exitY=0.25;exitDx=0;exitDy=0;" parent="1" source="dOKvvRetDitsmnMjPRdH-15" target="dOKvvRetDitsmnMjPRdH-20" edge="1">
          <mxGeometry width="50" height="50" relative="1" as="geometry">
            <mxPoint x="1030" y="-245" as="sourcePoint" />
            <mxPoint x="1110" y="-370" as="targetPoint" />
            <Array as="points" />
          </mxGeometry>
        </mxCell>
        <mxCell id="dOKvvRetDitsmnMjPRdH-20" value="AnimalID" style="ellipse;whiteSpace=wrap;html=1;" parent="1" vertex="1">
          <mxGeometry x="1030" y="-390" width="90" height="60" as="geometry" />
        </mxCell>
        <mxCell id="dOKvvRetDitsmnMjPRdH-21" value="Treatment" style="ellipse;whiteSpace=wrap;html=1;" parent="1" vertex="1">
          <mxGeometry x="790" y="-185" width="90" height="70" as="geometry" />
        </mxCell>
        <mxCell id="dOKvvRetDitsmnMjPRdH-22" value="" style="endArrow=none;html=1;rounded=0;entryX=0;entryY=0;entryDx=0;entryDy=0;" parent="1" target="dOKvvRetDitsmnMjPRdH-15" edge="1">
          <mxGeometry width="50" height="50" relative="1" as="geometry">
            <mxPoint x="875.145313828807" y="-332.23359131385405" as="sourcePoint" />
            <mxPoint x="920" y="-250" as="targetPoint" />
            <Array as="points" />
          </mxGeometry>
        </mxCell>
        <mxCell id="dOKvvRetDitsmnMjPRdH-23" value="Count" style="ellipse;whiteSpace=wrap;html=1;" parent="1" vertex="1">
          <mxGeometry x="838" y="-390" width="80" height="60" as="geometry" />
        </mxCell>
        <mxCell id="dOKvvRetDitsmnMjPRdH-24" value="" style="endArrow=none;html=1;rounded=0;entryX=0.5;entryY=0;entryDx=0;entryDy=0;" parent="1" source="dOKvvRetDitsmnMjPRdH-15" target="dOKvvRetDitsmnMjPRdH-21" edge="1">
          <mxGeometry width="50" height="50" relative="1" as="geometry">
            <mxPoint x="1170" y="-300" as="sourcePoint" />
            <mxPoint x="1220" y="-350" as="targetPoint" />
          </mxGeometry>
        </mxCell>
        <mxCell id="dOKvvRetDitsmnMjPRdH-25" value="" style="endArrow=none;html=1;rounded=0;exitX=0.3;exitY=0.143;exitDx=0;exitDy=0;exitPerimeter=0;entryX=0.75;entryY=1;entryDx=0;entryDy=0;" parent="1" source="dOKvvRetDitsmnMjPRdH-26" target="dOKvvRetDitsmnMjPRdH-15" edge="1">
          <mxGeometry width="50" height="50" relative="1" as="geometry">
            <mxPoint x="1000" y="-149" as="sourcePoint" />
            <mxPoint x="1000" y="-200" as="targetPoint" />
            <Array as="points" />
          </mxGeometry>
        </mxCell>
        <mxCell id="dOKvvRetDitsmnMjPRdH-26" value="HealthIssue" style="ellipse;whiteSpace=wrap;html=1;" parent="1" vertex="1">
          <mxGeometry x="1000" y="-160" width="90" height="70" as="geometry" />
        </mxCell>
        <mxCell id="dOKvvRetDitsmnMjPRdH-27" value="" style="endArrow=none;html=1;rounded=0;exitX=0.222;exitY=0.117;exitDx=0;exitDy=0;entryX=1;entryY=0.75;entryDx=0;entryDy=0;exitPerimeter=0;" parent="1" source="dOKvvRetDitsmnMjPRdH-29" target="dOKvvRetDitsmnMjPRdH-15" edge="1">
          <mxGeometry width="50" height="50" relative="1" as="geometry">
            <mxPoint x="1340" y="-225" as="sourcePoint" />
            <mxPoint x="1280" y="-235" as="targetPoint" />
            <Array as="points" />
          </mxGeometry>
        </mxCell>
        <mxCell id="dOKvvRetDitsmnMjPRdH-28" value="LocationID" style="ellipse;whiteSpace=wrap;html=1;" parent="1" vertex="1">
          <mxGeometry x="1095" y="-310" width="90" height="60" as="geometry" />
        </mxCell>
        <mxCell id="dOKvvRetDitsmnMjPRdH-29" value="Date" style="ellipse;whiteSpace=wrap;html=1;" parent="1" vertex="1">
          <mxGeometry x="1090" y="-200" width="90" height="60" as="geometry" />
        </mxCell>
        <mxCell id="dOKvvRetDitsmnMjPRdH-30" value="" style="endArrow=none;html=1;rounded=0;entryX=0.011;entryY=0.617;entryDx=0;entryDy=0;entryPerimeter=0;exitX=1;exitY=0.5;exitDx=0;exitDy=0;" parent="1" source="dOKvvRetDitsmnMjPRdH-15" target="dOKvvRetDitsmnMjPRdH-28" edge="1">
          <mxGeometry width="50" height="50" relative="1" as="geometry">
            <mxPoint x="1050" y="-160" as="sourcePoint" />
            <mxPoint x="1100" y="-210" as="targetPoint" />
          </mxGeometry>
        </mxCell>
        <mxCell id="dOKvvRetDitsmnMjPRdH-31" value="" style="endArrow=none;html=1;rounded=0;exitX=1;exitY=0.5;exitDx=0;exitDy=0;" parent="1" source="dOKvvRetDitsmnMjPRdH-32" target="dOKvvRetDitsmnMjPRdH-15" edge="1">
          <mxGeometry width="50" height="50" relative="1" as="geometry">
            <mxPoint x="840.0000000000223" y="-240.00000000000023" as="sourcePoint" />
            <mxPoint x="1100" y="-210" as="targetPoint" />
          </mxGeometry>
        </mxCell>
        <mxCell id="dOKvvRetDitsmnMjPRdH-32" value="VeterinarianID" style="ellipse;whiteSpace=wrap;html=1;" parent="1" vertex="1">
          <mxGeometry x="740" y="-330" width="90" height="60" as="geometry" />
        </mxCell>
        <mxCell id="dOKvvRetDitsmnMjPRdH-33" value="Diagnosis" style="ellipse;whiteSpace=wrap;html=1;" parent="1" vertex="1">
          <mxGeometry x="870" y="-140" width="90" height="70" as="geometry" />
        </mxCell>
        <mxCell id="dOKvvRetDitsmnMjPRdH-34" value="" style="endArrow=none;html=1;rounded=0;exitX=0.5;exitY=0;exitDx=0;exitDy=0;entryX=0.383;entryY=1.017;entryDx=0;entryDy=0;entryPerimeter=0;" parent="1" source="dOKvvRetDitsmnMjPRdH-33" target="dOKvvRetDitsmnMjPRdH-15" edge="1">
          <mxGeometry width="50" height="50" relative="1" as="geometry">
            <mxPoint x="1050" y="-120" as="sourcePoint" />
            <mxPoint x="1100" y="-170" as="targetPoint" />
          </mxGeometry>
        </mxCell>
        <mxCell id="dOKvvRetDitsmnMjPRdH-35" value="AnimalMigrations" style="rounded=0;whiteSpace=wrap;html=1;" parent="1" vertex="1">
          <mxGeometry x="-535" y="705" width="120" height="60" as="geometry" />
        </mxCell>
        <mxCell id="dOKvvRetDitsmnMjPRdH-37" value="" style="endArrow=none;html=1;rounded=0;exitX=0.408;exitY=0.017;exitDx=0;exitDy=0;exitPerimeter=0;" parent="1" source="dOKvvRetDitsmnMjPRdH-35" edge="1">
          <mxGeometry width="50" height="50" relative="1" as="geometry">
            <mxPoint x="-225" y="815" as="sourcePoint" />
            <mxPoint x="-489.33340647912746" y="634.9967084392556" as="targetPoint" />
            <Array as="points" />
          </mxGeometry>
        </mxCell>
        <mxCell id="dOKvvRetDitsmnMjPRdH-38" value="&lt;u&gt;MigrationID&lt;/u&gt;" style="ellipse;whiteSpace=wrap;html=1;" parent="1" vertex="1">
          <mxGeometry x="-535" y="575" width="90" height="60" as="geometry" />
        </mxCell>
        <mxCell id="dOKvvRetDitsmnMjPRdH-39" value="" style="endArrow=none;html=1;rounded=0;exitX=1;exitY=0.25;exitDx=0;exitDy=0;" parent="1" source="dOKvvRetDitsmnMjPRdH-35" target="dOKvvRetDitsmnMjPRdH-40" edge="1">
          <mxGeometry width="50" height="50" relative="1" as="geometry">
            <mxPoint x="-425" y="740" as="sourcePoint" />
            <mxPoint x="-345" y="615" as="targetPoint" />
            <Array as="points" />
          </mxGeometry>
        </mxCell>
        <mxCell id="dOKvvRetDitsmnMjPRdH-40" value="AnimalID" style="ellipse;whiteSpace=wrap;html=1;" parent="1" vertex="1">
          <mxGeometry x="-425" y="595" width="90" height="60" as="geometry" />
        </mxCell>
        <mxCell id="dOKvvRetDitsmnMjPRdH-41" value="Details" style="ellipse;whiteSpace=wrap;html=1;" parent="1" vertex="1">
          <mxGeometry x="-740" y="655" width="90" height="70" as="geometry" />
        </mxCell>
        <mxCell id="dOKvvRetDitsmnMjPRdH-42" value="" style="endArrow=none;html=1;rounded=0;entryX=0;entryY=0;entryDx=0;entryDy=0;" parent="1" target="dOKvvRetDitsmnMjPRdH-35" edge="1">
          <mxGeometry width="50" height="50" relative="1" as="geometry">
            <mxPoint x="-579.854686171193" y="652.766408686146" as="sourcePoint" />
            <mxPoint x="-535" y="735" as="targetPoint" />
            <Array as="points" />
          </mxGeometry>
        </mxCell>
        <mxCell id="dOKvvRetDitsmnMjPRdH-44" value="" style="endArrow=none;html=1;rounded=0;entryX=1;entryY=0.5;entryDx=0;entryDy=0;" parent="1" source="dOKvvRetDitsmnMjPRdH-35" target="dOKvvRetDitsmnMjPRdH-41" edge="1">
          <mxGeometry width="50" height="50" relative="1" as="geometry">
            <mxPoint x="-285" y="685" as="sourcePoint" />
            <mxPoint x="-235" y="635" as="targetPoint" />
          </mxGeometry>
        </mxCell>
        <mxCell id="dOKvvRetDitsmnMjPRdH-45" value="" style="endArrow=none;html=1;rounded=0;exitX=0.3;exitY=0.143;exitDx=0;exitDy=0;exitPerimeter=0;entryX=0.25;entryY=1;entryDx=0;entryDy=0;" parent="1" source="dOKvvRetDitsmnMjPRdH-46" target="dOKvvRetDitsmnMjPRdH-35" edge="1">
          <mxGeometry width="50" height="50" relative="1" as="geometry">
            <mxPoint x="-455" y="836" as="sourcePoint" />
            <mxPoint x="-455" y="785" as="targetPoint" />
            <Array as="points" />
          </mxGeometry>
        </mxCell>
        <mxCell id="dOKvvRetDitsmnMjPRdH-46" value="MigrationDate" style="ellipse;whiteSpace=wrap;html=1;" parent="1" vertex="1">
          <mxGeometry x="-580" y="815" width="90" height="70" as="geometry" />
        </mxCell>
        <mxCell id="dOKvvRetDitsmnMjPRdH-47" value="" style="endArrow=none;html=1;rounded=0;exitX=0;exitY=0;exitDx=0;exitDy=0;entryX=0.616;entryY=1.092;entryDx=0;entryDy=0;entryPerimeter=0;" parent="1" source="dOKvvRetDitsmnMjPRdH-49" target="dOKvvRetDitsmnMjPRdH-35" edge="1">
          <mxGeometry width="50" height="50" relative="1" as="geometry">
            <mxPoint x="-330" y="755" as="sourcePoint" />
            <mxPoint x="-175" y="750" as="targetPoint" />
            <Array as="points" />
          </mxGeometry>
        </mxCell>
        <mxCell id="dOKvvRetDitsmnMjPRdH-48" value="From&lt;br&gt;LocationID" style="ellipse;whiteSpace=wrap;html=1;" parent="1" vertex="1">
          <mxGeometry x="-380.00000000000006" y="765" width="90" height="60" as="geometry" />
        </mxCell>
        <mxCell id="dOKvvRetDitsmnMjPRdH-49" value="To&lt;br&gt;LocationID" style="ellipse;whiteSpace=wrap;html=1;" parent="1" vertex="1">
          <mxGeometry x="-470" y="835" width="90" height="60" as="geometry" />
        </mxCell>
        <mxCell id="dOKvvRetDitsmnMjPRdH-50" value="" style="endArrow=none;html=1;rounded=0;entryX=0.011;entryY=0.617;entryDx=0;entryDy=0;entryPerimeter=0;exitX=1;exitY=1;exitDx=0;exitDy=0;" parent="1" source="dOKvvRetDitsmnMjPRdH-35" target="dOKvvRetDitsmnMjPRdH-48" edge="1">
          <mxGeometry width="50" height="50" relative="1" as="geometry">
            <mxPoint x="-405" y="825" as="sourcePoint" />
            <mxPoint x="-355" y="775" as="targetPoint" />
          </mxGeometry>
        </mxCell>
        <mxCell id="dOKvvRetDitsmnMjPRdH-52" value="Count" style="ellipse;whiteSpace=wrap;html=1;" parent="1" vertex="1">
          <mxGeometry x="-630" y="605" width="90" height="60" as="geometry" />
        </mxCell>
        <mxCell id="dOKvvRetDitsmnMjPRdH-53" value="Reason" style="ellipse;whiteSpace=wrap;html=1;" parent="1" vertex="1">
          <mxGeometry x="-670" y="755" width="90" height="70" as="geometry" />
        </mxCell>
        <mxCell id="dOKvvRetDitsmnMjPRdH-54" value="" style="endArrow=none;html=1;rounded=0;exitX=1;exitY=0;exitDx=0;exitDy=0;entryX=0;entryY=0.75;entryDx=0;entryDy=0;" parent="1" source="dOKvvRetDitsmnMjPRdH-53" target="dOKvvRetDitsmnMjPRdH-35" edge="1">
          <mxGeometry width="50" height="50" relative="1" as="geometry">
            <mxPoint x="-405" y="865" as="sourcePoint" />
            <mxPoint x="-355" y="815" as="targetPoint" />
          </mxGeometry>
        </mxCell>
        <mxCell id="dOKvvRetDitsmnMjPRdH-56" value="Veterinarian" style="rounded=0;whiteSpace=wrap;html=1;" parent="1" vertex="1">
          <mxGeometry x="702.67" y="204.99999999999977" width="120" height="60" as="geometry" />
        </mxCell>
        <mxCell id="dOKvvRetDitsmnMjPRdH-57" value="Experience" style="ellipse;whiteSpace=wrap;html=1;" parent="1" vertex="1">
          <mxGeometry x="565.67" y="265" width="100" height="60" as="geometry" />
        </mxCell>
        <mxCell id="dOKvvRetDitsmnMjPRdH-58" value="" style="endArrow=none;html=1;rounded=0;exitX=0.3;exitY=0.143;exitDx=0;exitDy=0;exitPerimeter=0;entryX=0.308;entryY=1.008;entryDx=0;entryDy=0;entryPerimeter=0;" parent="1" source="dOKvvRetDitsmnMjPRdH-59" target="dOKvvRetDitsmnMjPRdH-56" edge="1">
          <mxGeometry width="50" height="50" relative="1" as="geometry">
            <mxPoint x="805.67" y="324" as="sourcePoint" />
            <mxPoint x="805.67" y="273" as="targetPoint" />
            <Array as="points" />
          </mxGeometry>
        </mxCell>
        <mxCell id="dOKvvRetDitsmnMjPRdH-59" value="Qualification" style="ellipse;whiteSpace=wrap;html=1;" parent="1" vertex="1">
          <mxGeometry x="670.67" y="300" width="90" height="70" as="geometry" />
        </mxCell>
        <mxCell id="dOKvvRetDitsmnMjPRdH-60" value="" style="endArrow=none;html=1;rounded=0;exitX=0.5;exitY=0;exitDx=0;exitDy=0;entryX=0.75;entryY=1;entryDx=0;entryDy=0;" parent="1" source="dOKvvRetDitsmnMjPRdH-61" target="dOKvvRetDitsmnMjPRdH-56" edge="1">
          <mxGeometry width="50" height="50" relative="1" as="geometry">
            <mxPoint x="1145.67" y="248" as="sourcePoint" />
            <mxPoint x="1085.67" y="238" as="targetPoint" />
            <Array as="points" />
          </mxGeometry>
        </mxCell>
        <mxCell id="dOKvvRetDitsmnMjPRdH-61" value="Veterinarian&lt;br&gt;Name" style="ellipse;whiteSpace=wrap;html=1;" parent="1" vertex="1">
          <mxGeometry x="775.67" y="300" width="90" height="60" as="geometry" />
        </mxCell>
        <mxCell id="dOKvvRetDitsmnMjPRdH-62" value="" style="endArrow=none;html=1;rounded=0;exitX=0;exitY=0.5;exitDx=0;exitDy=0;entryX=1;entryY=1;entryDx=0;entryDy=0;" parent="1" source="dOKvvRetDitsmnMjPRdH-56" target="dOKvvRetDitsmnMjPRdH-64" edge="1">
          <mxGeometry width="50" height="50" relative="1" as="geometry">
            <mxPoint x="855.67" y="313" as="sourcePoint" />
            <mxPoint x="880.67" y="192" as="targetPoint" />
          </mxGeometry>
        </mxCell>
        <mxCell id="dOKvvRetDitsmnMjPRdH-63" value="" style="endArrow=none;html=1;rounded=0;entryX=0;entryY=0.75;entryDx=0;entryDy=0;exitX=0.67;exitY=0.067;exitDx=0;exitDy=0;exitPerimeter=0;" parent="1" source="dOKvvRetDitsmnMjPRdH-57" target="dOKvvRetDitsmnMjPRdH-56" edge="1">
          <mxGeometry width="50" height="50" relative="1" as="geometry">
            <mxPoint x="715.67" y="315" as="sourcePoint" />
            <mxPoint x="905.67" y="303" as="targetPoint" />
          </mxGeometry>
        </mxCell>
        <mxCell id="dOKvvRetDitsmnMjPRdH-64" value="ContactEmail" style="ellipse;whiteSpace=wrap;html=1;" parent="1" vertex="1">
          <mxGeometry x="570.67" y="165" width="90" height="60" as="geometry" />
        </mxCell>
        <mxCell id="dsyFgQTQzj1wyREyL058-1" value="&lt;u&gt;VeterinarianID&lt;/u&gt;" style="ellipse;whiteSpace=wrap;html=1;" parent="1" vertex="1">
          <mxGeometry x="859.3399999999999" y="205" width="90" height="60" as="geometry" />
        </mxCell>
        <mxCell id="dsyFgQTQzj1wyREyL058-2" value="" style="endArrow=none;html=1;rounded=0;exitX=0;exitY=0.5;exitDx=0;exitDy=0;entryX=1;entryY=0.5;entryDx=0;entryDy=0;" parent="1" source="dsyFgQTQzj1wyREyL058-1" target="dOKvvRetDitsmnMjPRdH-56" edge="1">
          <mxGeometry width="50" height="50" relative="1" as="geometry">
            <mxPoint x="600.67" y="332" as="sourcePoint" />
            <mxPoint x="650.67" y="282" as="targetPoint" />
          </mxGeometry>
        </mxCell>
        <mxCell id="dsyFgQTQzj1wyREyL058-3" value="ContactPhone" style="ellipse;whiteSpace=wrap;html=1;" parent="1" vertex="1">
          <mxGeometry x="797.51" y="105" width="90" height="70" as="geometry" />
        </mxCell>
        <mxCell id="dsyFgQTQzj1wyREyL058-4" value="" style="endArrow=none;html=1;rounded=0;entryX=0.289;entryY=0.921;entryDx=0;entryDy=0;entryPerimeter=0;exitX=0.833;exitY=0.008;exitDx=0;exitDy=0;exitPerimeter=0;" parent="1" source="dOKvvRetDitsmnMjPRdH-56" target="dsyFgQTQzj1wyREyL058-3" edge="1">
          <mxGeometry width="50" height="50" relative="1" as="geometry">
            <mxPoint x="650.67" y="232" as="sourcePoint" />
            <mxPoint x="823.7099999999999" y="165.51999999999998" as="targetPoint" />
          </mxGeometry>
        </mxCell>
        <mxCell id="dsyFgQTQzj1wyREyL058-6" value="Expenditure" style="rounded=0;whiteSpace=wrap;html=1;" parent="1" vertex="1">
          <mxGeometry x="-925" y="-776.0000000000002" width="120" height="60" as="geometry" />
        </mxCell>
        <mxCell id="dsyFgQTQzj1wyREyL058-7" value="Amount" style="ellipse;whiteSpace=wrap;html=1;" parent="1" vertex="1">
          <mxGeometry x="-990" y="-700" width="100" height="60" as="geometry" />
        </mxCell>
        <mxCell id="dsyFgQTQzj1wyREyL058-8" value="" style="endArrow=none;html=1;rounded=0;exitX=0.3;exitY=0.143;exitDx=0;exitDy=0;exitPerimeter=0;entryX=0.75;entryY=1;entryDx=0;entryDy=0;" parent="1" source="dsyFgQTQzj1wyREyL058-9" target="dsyFgQTQzj1wyREyL058-6" edge="1">
          <mxGeometry width="50" height="50" relative="1" as="geometry">
            <mxPoint x="-817.5" y="-671" as="sourcePoint" />
            <mxPoint x="-817.5" y="-722" as="targetPoint" />
            <Array as="points" />
          </mxGeometry>
        </mxCell>
        <mxCell id="dsyFgQTQzj1wyREyL058-9" value="Expenditure&lt;br&gt;AreaID" style="ellipse;whiteSpace=wrap;html=1;" parent="1" vertex="1">
          <mxGeometry x="-860" y="-690" width="90" height="70" as="geometry" />
        </mxCell>
        <mxCell id="dsyFgQTQzj1wyREyL058-10" value="" style="endArrow=none;html=1;rounded=0;exitX=0.089;exitY=0.275;exitDx=0;exitDy=0;entryX=1;entryY=0.75;entryDx=0;entryDy=0;exitPerimeter=0;" parent="1" source="dsyFgQTQzj1wyREyL058-11" target="dsyFgQTQzj1wyREyL058-6" edge="1">
          <mxGeometry width="50" height="50" relative="1" as="geometry">
            <mxPoint x="-477.5" y="-747" as="sourcePoint" />
            <mxPoint x="-537.5" y="-757" as="targetPoint" />
            <Array as="points" />
          </mxGeometry>
        </mxCell>
        <mxCell id="dsyFgQTQzj1wyREyL058-11" value="Date" style="ellipse;whiteSpace=wrap;html=1;" parent="1" vertex="1">
          <mxGeometry x="-770" y="-730" width="90" height="60" as="geometry" />
        </mxCell>
        <mxCell id="dsyFgQTQzj1wyREyL058-13" value="" style="endArrow=none;html=1;rounded=0;entryX=0.25;entryY=1;entryDx=0;entryDy=0;exitX=0.57;exitY=-0.025;exitDx=0;exitDy=0;exitPerimeter=0;" parent="1" source="dsyFgQTQzj1wyREyL058-7" target="dsyFgQTQzj1wyREyL058-6" edge="1">
          <mxGeometry width="50" height="50" relative="1" as="geometry">
            <mxPoint x="-907.5" y="-680" as="sourcePoint" />
            <mxPoint x="-717.5" y="-692" as="targetPoint" />
          </mxGeometry>
        </mxCell>
        <mxCell id="dsyFgQTQzj1wyREyL058-15" value="LocationID" style="ellipse;whiteSpace=wrap;html=1;" parent="1" vertex="1">
          <mxGeometry x="-780.0000000000001" y="-847" width="90" height="60" as="geometry" />
        </mxCell>
        <mxCell id="dsyFgQTQzj1wyREyL058-16" value="" style="endArrow=none;html=1;rounded=0;exitX=0;exitY=1;exitDx=0;exitDy=0;entryX=1;entryY=0.25;entryDx=0;entryDy=0;" parent="1" source="dsyFgQTQzj1wyREyL058-15" target="dsyFgQTQzj1wyREyL058-6" edge="1">
          <mxGeometry width="50" height="50" relative="1" as="geometry">
            <mxPoint x="-1022.5" y="-663" as="sourcePoint" />
            <mxPoint x="-972.5" y="-713" as="targetPoint" />
          </mxGeometry>
        </mxCell>
        <mxCell id="dsyFgQTQzj1wyREyL058-17" value="&lt;u&gt;ExpenditureID&lt;/u&gt;" style="ellipse;whiteSpace=wrap;html=1;" parent="1" vertex="1">
          <mxGeometry x="-895.0000000000001" y="-890" width="90" height="70" as="geometry" />
        </mxCell>
        <mxCell id="dsyFgQTQzj1wyREyL058-18" value="" style="endArrow=none;html=1;rounded=0;entryX=0.5;entryY=1;entryDx=0;entryDy=0;exitX=0.563;exitY=0.008;exitDx=0;exitDy=0;exitPerimeter=0;" parent="1" source="dsyFgQTQzj1wyREyL058-6" target="dsyFgQTQzj1wyREyL058-17" edge="1">
          <mxGeometry width="50" height="50" relative="1" as="geometry">
            <mxPoint x="-972.5" y="-763" as="sourcePoint" />
            <mxPoint x="-799.46" y="-829.48" as="targetPoint" />
          </mxGeometry>
        </mxCell>
        <mxCell id="dsyFgQTQzj1wyREyL058-19" value="LocationType" style="rounded=0;whiteSpace=wrap;html=1;" parent="1" vertex="1">
          <mxGeometry x="999.5" y="-540" width="120" height="60" as="geometry" />
        </mxCell>
        <mxCell id="dsyFgQTQzj1wyREyL058-20" value="" style="endArrow=none;html=1;rounded=0;exitX=1;exitY=0.25;exitDx=0;exitDy=0;" parent="1" source="dsyFgQTQzj1wyREyL058-19" edge="1">
          <mxGeometry width="50" height="50" relative="1" as="geometry">
            <mxPoint x="1219.5" y="-540" as="sourcePoint" />
            <mxPoint x="1159.5" y="-550" as="targetPoint" />
            <Array as="points" />
          </mxGeometry>
        </mxCell>
        <mxCell id="dsyFgQTQzj1wyREyL058-21" value="TypeName" style="ellipse;whiteSpace=wrap;html=1;" parent="1" vertex="1">
          <mxGeometry x="1149.5" y="-600" width="80" height="60" as="geometry" />
        </mxCell>
        <mxCell id="dsyFgQTQzj1wyREyL058-22" value="" style="endArrow=none;html=1;rounded=0;exitX=0.408;exitY=0.017;exitDx=0;exitDy=0;exitPerimeter=0;" parent="1" source="dsyFgQTQzj1wyREyL058-19" edge="1">
          <mxGeometry width="50" height="50" relative="1" as="geometry">
            <mxPoint x="1279.5" y="-350" as="sourcePoint" />
            <mxPoint x="1048.5" y="-590" as="targetPoint" />
            <Array as="points" />
          </mxGeometry>
        </mxCell>
        <mxCell id="dsyFgQTQzj1wyREyL058-23" value="&lt;u&gt;LocationTypeID&lt;/u&gt;" style="ellipse;whiteSpace=wrap;html=1;" parent="1" vertex="1">
          <mxGeometry x="999.5" y="-640" width="90" height="60" as="geometry" />
        </mxCell>
        <mxCell id="dsyFgQTQzj1wyREyL058-24" value="" style="group" parent="1" vertex="1" connectable="0">
          <mxGeometry x="-1020" y="10" width="425" height="295" as="geometry" />
        </mxCell>
        <mxCell id="473TaDn3XzCNETPL2ArG-86" value="ExtinctSpecies" style="rounded=0;whiteSpace=wrap;html=1;" parent="dsyFgQTQzj1wyREyL058-24" vertex="1">
          <mxGeometry x="145.66999999999996" y="112.90999999999997" width="120" height="60" as="geometry" />
        </mxCell>
        <mxCell id="473TaDn3XzCNETPL2ArG-87" value="LastSighting&lt;br&gt;DateID" style="ellipse;whiteSpace=wrap;html=1;" parent="dsyFgQTQzj1wyREyL058-24" vertex="1">
          <mxGeometry x="110" y="10" width="90" height="60" as="geometry" />
        </mxCell>
        <mxCell id="473TaDn3XzCNETPL2ArG-88" value="" style="endArrow=none;html=1;rounded=0;" parent="dsyFgQTQzj1wyREyL058-24" target="473TaDn3XzCNETPL2ArG-89" edge="1">
          <mxGeometry width="50" height="50" relative="1" as="geometry">
            <mxPoint x="255" y="110" as="sourcePoint" />
            <mxPoint x="365" y="15" as="targetPoint" />
            <Array as="points" />
          </mxGeometry>
        </mxCell>
        <mxCell id="473TaDn3XzCNETPL2ArG-89" value="&lt;u&gt;ExtinctSpecies&lt;br&gt;ID&lt;/u&gt;" style="ellipse;whiteSpace=wrap;html=1;" parent="dsyFgQTQzj1wyREyL058-24" vertex="1">
          <mxGeometry x="245" width="90" height="60" as="geometry" />
        </mxCell>
        <mxCell id="473TaDn3XzCNETPL2ArG-90" value="" style="endArrow=none;html=1;rounded=0;exitX=0.767;exitY=0.95;exitDx=0;exitDy=0;exitPerimeter=0;" parent="dsyFgQTQzj1wyREyL058-24" source="473TaDn3XzCNETPL2ArG-87" target="473TaDn3XzCNETPL2ArG-86" edge="1">
          <mxGeometry width="50" height="50" relative="1" as="geometry">
            <mxPoint x="115.00491809901303" y="47.0816190594162" as="sourcePoint" />
            <mxPoint x="114.66999999999996" y="61.91000000000008" as="targetPoint" />
            <Array as="points" />
          </mxGeometry>
        </mxCell>
        <mxCell id="473TaDn3XzCNETPL2ArG-91" value="CauseOf&lt;br&gt;Extinction" style="ellipse;whiteSpace=wrap;html=1;" parent="dsyFgQTQzj1wyREyL058-24" vertex="1">
          <mxGeometry x="110" y="220" width="100" height="60" as="geometry" />
        </mxCell>
        <mxCell id="473TaDn3XzCNETPL2ArG-92" value="" style="endArrow=none;html=1;rounded=0;exitX=0.3;exitY=0.143;exitDx=0;exitDy=0;exitPerimeter=0;entryX=0.844;entryY=0.985;entryDx=0;entryDy=0;entryPerimeter=0;" parent="dsyFgQTQzj1wyREyL058-24" source="473TaDn3XzCNETPL2ArG-93" target="473TaDn3XzCNETPL2ArG-86" edge="1">
          <mxGeometry width="50" height="50" relative="1" as="geometry">
            <mxPoint x="255" y="236" as="sourcePoint" />
            <mxPoint x="255" y="185" as="targetPoint" />
            <Array as="points" />
          </mxGeometry>
        </mxCell>
        <mxCell id="473TaDn3XzCNETPL2ArG-93" value="Species" style="ellipse;whiteSpace=wrap;html=1;" parent="dsyFgQTQzj1wyREyL058-24" vertex="1">
          <mxGeometry x="235" y="225" width="90" height="70" as="geometry" />
        </mxCell>
        <mxCell id="473TaDn3XzCNETPL2ArG-94" value="" style="endArrow=none;html=1;rounded=0;exitX=0.033;exitY=0.333;exitDx=0;exitDy=0;entryX=1;entryY=0.75;entryDx=0;entryDy=0;exitPerimeter=0;" parent="dsyFgQTQzj1wyREyL058-24" source="473TaDn3XzCNETPL2ArG-96" target="473TaDn3XzCNETPL2ArG-86" edge="1">
          <mxGeometry width="50" height="50" relative="1" as="geometry">
            <mxPoint x="595" y="160" as="sourcePoint" />
            <mxPoint x="535" y="150" as="targetPoint" />
            <Array as="points" />
          </mxGeometry>
        </mxCell>
        <mxCell id="473TaDn3XzCNETPL2ArG-95" value="CommonName" style="ellipse;whiteSpace=wrap;html=1;" parent="dsyFgQTQzj1wyREyL058-24" vertex="1">
          <mxGeometry x="335" y="70" width="90" height="60" as="geometry" />
        </mxCell>
        <mxCell id="473TaDn3XzCNETPL2ArG-96" value="ScientificName" style="ellipse;whiteSpace=wrap;html=1;" parent="dsyFgQTQzj1wyREyL058-24" vertex="1">
          <mxGeometry x="335" y="160" width="90" height="60" as="geometry" />
        </mxCell>
        <mxCell id="473TaDn3XzCNETPL2ArG-97" value="" style="endArrow=none;html=1;rounded=0;entryX=0.011;entryY=0.617;entryDx=0;entryDy=0;entryPerimeter=0;exitX=1;exitY=0.5;exitDx=0;exitDy=0;" parent="dsyFgQTQzj1wyREyL058-24" source="473TaDn3XzCNETPL2ArG-86" target="473TaDn3XzCNETPL2ArG-95" edge="1">
          <mxGeometry width="50" height="50" relative="1" as="geometry">
            <mxPoint x="305" y="225" as="sourcePoint" />
            <mxPoint x="355" y="175" as="targetPoint" />
          </mxGeometry>
        </mxCell>
        <mxCell id="473TaDn3XzCNETPL2ArG-98" value="" style="endArrow=none;html=1;rounded=0;entryX=0.383;entryY=1.017;entryDx=0;entryDy=0;entryPerimeter=0;" parent="dsyFgQTQzj1wyREyL058-24" target="473TaDn3XzCNETPL2ArG-86" edge="1">
          <mxGeometry width="50" height="50" relative="1" as="geometry">
            <mxPoint x="170" y="220" as="sourcePoint" />
            <mxPoint x="355" y="215" as="targetPoint" />
          </mxGeometry>
        </mxCell>
        <mxCell id="473TaDn3XzCNETPL2ArG-104" value="Historical&lt;br&gt;Range" style="ellipse;whiteSpace=wrap;html=1;" parent="dsyFgQTQzj1wyREyL058-24" vertex="1">
          <mxGeometry x="30" y="90" width="90" height="60" as="geometry" />
        </mxCell>
        <mxCell id="473TaDn3XzCNETPL2ArG-105" value="" style="endArrow=none;html=1;rounded=0;" parent="dsyFgQTQzj1wyREyL058-24" source="473TaDn3XzCNETPL2ArG-104" target="473TaDn3XzCNETPL2ArG-86" edge="1">
          <mxGeometry width="50" height="50" relative="1" as="geometry">
            <mxPoint x="154" y="82" as="sourcePoint" />
            <mxPoint x="140" y="130" as="targetPoint" />
            <Array as="points" />
          </mxGeometry>
        </mxCell>
        <mxCell id="473TaDn3XzCNETPL2ArG-106" style="edgeStyle=orthogonalEdgeStyle;rounded=0;orthogonalLoop=1;jettySize=auto;html=1;exitX=0.5;exitY=1;exitDx=0;exitDy=0;" parent="dsyFgQTQzj1wyREyL058-24" source="473TaDn3XzCNETPL2ArG-104" target="473TaDn3XzCNETPL2ArG-104" edge="1">
          <mxGeometry relative="1" as="geometry" />
        </mxCell>
        <mxCell id="473TaDn3XzCNETPL2ArG-107" value="Description" style="ellipse;whiteSpace=wrap;html=1;" parent="dsyFgQTQzj1wyREyL058-24" vertex="1">
          <mxGeometry y="172.90999999999997" width="100" height="60" as="geometry" />
        </mxCell>
        <mxCell id="473TaDn3XzCNETPL2ArG-108" value="" style="endArrow=none;html=1;rounded=0;entryX=0;entryY=1;entryDx=0;entryDy=0;exitX=1;exitY=0.368;exitDx=0;exitDy=0;exitPerimeter=0;" parent="dsyFgQTQzj1wyREyL058-24" source="473TaDn3XzCNETPL2ArG-107" target="473TaDn3XzCNETPL2ArG-86" edge="1">
          <mxGeometry width="50" height="50" relative="1" as="geometry">
            <mxPoint x="180" y="230" as="sourcePoint" />
            <mxPoint x="202" y="184" as="targetPoint" />
          </mxGeometry>
        </mxCell>
        <mxCell id="pFbZxQtzsc7G3XecZunm-7" value="" style="endArrow=none;html=1;rounded=0;entryX=0.5;entryY=1;entryDx=0;entryDy=0;" parent="1" target="pFbZxQtzsc7G3XecZunm-8" edge="1">
          <mxGeometry width="50" height="50" relative="1" as="geometry">
            <mxPoint x="170" y="-550" as="sourcePoint" />
            <mxPoint x="170" y="-890" as="targetPoint" />
          </mxGeometry>
        </mxCell>
        <mxCell id="dph8iHrBrkBYRlTdIY49-14" value="1" style="edgeLabel;html=1;align=center;verticalAlign=middle;resizable=0;points=[];" parent="pFbZxQtzsc7G3XecZunm-7" vertex="1" connectable="0">
          <mxGeometry x="0.3349" y="2" relative="1" as="geometry">
            <mxPoint as="offset" />
          </mxGeometry>
        </mxCell>
        <mxCell id="pFbZxQtzsc7G3XecZunm-8" value="getsResource" style="rhombus;whiteSpace=wrap;html=1;" parent="1" vertex="1">
          <mxGeometry x="105" y="-1048.09" width="130" height="108" as="geometry" />
        </mxCell>
        <mxCell id="pFbZxQtzsc7G3XecZunm-10" value="" style="endArrow=none;html=1;rounded=0;entryX=0;entryY=0.5;entryDx=0;entryDy=0;" parent="1" target="pFbZxQtzsc7G3XecZunm-8" edge="1">
          <mxGeometry width="50" height="50" relative="1" as="geometry">
            <mxPoint x="-350" y="-990" as="sourcePoint" />
            <mxPoint x="100" y="-990" as="targetPoint" />
          </mxGeometry>
        </mxCell>
        <mxCell id="dph8iHrBrkBYRlTdIY49-15" value="M" style="edgeLabel;html=1;align=center;verticalAlign=middle;resizable=0;points=[];" parent="pFbZxQtzsc7G3XecZunm-10" vertex="1" connectable="0">
          <mxGeometry x="0.1084" y="-2" relative="1" as="geometry">
            <mxPoint x="-1" as="offset" />
          </mxGeometry>
        </mxCell>
        <mxCell id="2BTnEX2r1UXNy-jf5gfW-1" value="" style="endArrow=none;html=1;rounded=0;strokeColor=none;edgeStyle=orthogonalEdgeStyle;" parent="1" edge="1">
          <mxGeometry width="50" height="50" relative="1" as="geometry">
            <mxPoint x="260" y="-530" as="sourcePoint" />
            <mxPoint x="710" y="-530" as="targetPoint" />
          </mxGeometry>
        </mxCell>
        <mxCell id="2BTnEX2r1UXNy-jf5gfW-2" value="" style="endArrow=none;html=1;rounded=0;edgeStyle=orthogonalEdgeStyle;" parent="1" edge="1">
          <mxGeometry width="50" height="50" relative="1" as="geometry">
            <mxPoint x="176.16000000000003" y="-490" as="sourcePoint" />
            <mxPoint x="175.93" y="-250" as="targetPoint" />
            <Array as="points">
              <mxPoint x="-98.07" y="-250" />
              <mxPoint x="-98.07" y="-250" />
            </Array>
          </mxGeometry>
        </mxCell>
        <mxCell id="dph8iHrBrkBYRlTdIY49-29" value="1" style="edgeLabel;html=1;align=center;verticalAlign=middle;resizable=0;points=[];" parent="2BTnEX2r1UXNy-jf5gfW-2" vertex="1" connectable="0">
          <mxGeometry x="-0.0343" y="-3" relative="1" as="geometry">
            <mxPoint x="-1" as="offset" />
          </mxGeometry>
        </mxCell>
        <mxCell id="2BTnEX2r1UXNy-jf5gfW-4" value="" style="endArrow=none;html=1;rounded=0;exitX=0;exitY=0.5;exitDx=0;exitDy=0;edgeStyle=orthogonalEdgeStyle;entryX=1;entryY=0.5;entryDx=0;entryDy=0;" parent="1" source="473TaDn3XzCNETPL2ArG-11" target="2BTnEX2r1UXNy-jf5gfW-29" edge="1">
          <mxGeometry width="50" height="50" relative="1" as="geometry">
            <mxPoint x="218.46" y="-480" as="sourcePoint" />
            <mxPoint x="-600" y="-750" as="targetPoint" />
            <Array as="points">
              <mxPoint x="-119" y="-520" />
              <mxPoint x="-119" y="-750" />
              <mxPoint x="-430" y="-750" />
            </Array>
          </mxGeometry>
        </mxCell>
        <mxCell id="dph8iHrBrkBYRlTdIY49-22" value="1" style="edgeLabel;html=1;align=center;verticalAlign=middle;resizable=0;points=[];" parent="2BTnEX2r1UXNy-jf5gfW-4" vertex="1" connectable="0">
          <mxGeometry x="-0.0623" y="4" relative="1" as="geometry">
            <mxPoint as="offset" />
          </mxGeometry>
        </mxCell>
        <mxCell id="2BTnEX2r1UXNy-jf5gfW-6" value="" style="endArrow=none;html=1;rounded=0;edgeStyle=orthogonalEdgeStyle;entryX=0;entryY=0.5;entryDx=0;entryDy=0;" parent="1" target="2BTnEX2r1UXNy-jf5gfW-22" edge="1">
          <mxGeometry width="50" height="50" relative="1" as="geometry">
            <mxPoint x="220" y="-490" as="sourcePoint" />
            <mxPoint x="560" y="-243" as="targetPoint" />
            <Array as="points">
              <mxPoint x="220" y="-246" />
            </Array>
          </mxGeometry>
        </mxCell>
        <mxCell id="dph8iHrBrkBYRlTdIY49-31" value="1" style="edgeLabel;html=1;align=center;verticalAlign=middle;resizable=0;points=[];" parent="2BTnEX2r1UXNy-jf5gfW-6" vertex="1" connectable="0">
          <mxGeometry x="0.4177" y="2" relative="1" as="geometry">
            <mxPoint as="offset" />
          </mxGeometry>
        </mxCell>
        <mxCell id="2BTnEX2r1UXNy-jf5gfW-8" value="" style="endArrow=none;html=1;rounded=0;entryX=0;entryY=0.5;entryDx=0;entryDy=0;" parent="1" target="2BTnEX2r1UXNy-jf5gfW-20" edge="1">
          <mxGeometry width="50" height="50" relative="1" as="geometry">
            <mxPoint x="258" y="-510" as="sourcePoint" />
            <mxPoint x="708" y="-510" as="targetPoint" />
            <Array as="points" />
          </mxGeometry>
        </mxCell>
        <mxCell id="dph8iHrBrkBYRlTdIY49-5" value="M" style="edgeLabel;html=1;align=center;verticalAlign=middle;resizable=0;points=[];" parent="2BTnEX2r1UXNy-jf5gfW-8" vertex="1" connectable="0">
          <mxGeometry x="-0.0353" relative="1" as="geometry">
            <mxPoint as="offset" />
          </mxGeometry>
        </mxCell>
        <mxCell id="2BTnEX2r1UXNy-jf5gfW-10" value="" style="endArrow=none;html=1;rounded=0;exitX=0.603;exitY=1.085;exitDx=0;exitDy=0;exitPerimeter=0;entryX=0.5;entryY=0;entryDx=0;entryDy=0;" parent="1" target="2BTnEX2r1UXNy-jf5gfW-25" edge="1">
          <mxGeometry width="50" height="50" relative="1" as="geometry">
            <mxPoint x="204.59000000000012" y="-490.0000000000001" as="sourcePoint" />
            <mxPoint x="204.23" y="-123.86924954927883" as="targetPoint" />
            <Array as="points" />
          </mxGeometry>
        </mxCell>
        <mxCell id="dph8iHrBrkBYRlTdIY49-8" value="1" style="edgeLabel;html=1;align=center;verticalAlign=middle;resizable=0;points=[];" parent="2BTnEX2r1UXNy-jf5gfW-10" vertex="1" connectable="0">
          <mxGeometry x="0.549" relative="1" as="geometry">
            <mxPoint as="offset" />
          </mxGeometry>
        </mxCell>
        <mxCell id="2BTnEX2r1UXNy-jf5gfW-11" value="" style="endArrow=none;html=1;rounded=0;exitX=0;exitY=0.5;exitDx=0;exitDy=0;entryX=1;entryY=0.5;entryDx=0;entryDy=0;" parent="1" target="2BTnEX2r1UXNy-jf5gfW-31" edge="1">
          <mxGeometry width="50" height="50" relative="1" as="geometry">
            <mxPoint x="138" y="-500" as="sourcePoint" />
            <mxPoint x="-330" y="-500" as="targetPoint" />
            <Array as="points">
              <mxPoint x="-30" y="-500" />
            </Array>
          </mxGeometry>
        </mxCell>
        <mxCell id="dph8iHrBrkBYRlTdIY49-2" value="M" style="edgeLabel;html=1;align=center;verticalAlign=middle;resizable=0;points=[];" parent="2BTnEX2r1UXNy-jf5gfW-11" vertex="1" connectable="0">
          <mxGeometry x="0.363" y="-1" relative="1" as="geometry">
            <mxPoint as="offset" />
          </mxGeometry>
        </mxCell>
        <mxCell id="2BTnEX2r1UXNy-jf5gfW-12" value="" style="endArrow=none;html=1;rounded=0;edgeStyle=orthogonalEdgeStyle;entryX=0.5;entryY=1;entryDx=0;entryDy=0;" parent="1" target="2BTnEX2r1UXNy-jf5gfW-14" edge="1">
          <mxGeometry width="50" height="50" relative="1" as="geometry">
            <mxPoint x="258" y="-530" as="sourcePoint" />
            <mxPoint x="690" y="-870" as="targetPoint" />
            <Array as="points">
              <mxPoint x="550" y="-530" />
              <mxPoint x="550" y="-751" />
            </Array>
          </mxGeometry>
        </mxCell>
        <mxCell id="dph8iHrBrkBYRlTdIY49-12" value="1" style="edgeLabel;html=1;align=center;verticalAlign=middle;resizable=0;points=[];" parent="2BTnEX2r1UXNy-jf5gfW-12" vertex="1" connectable="0">
          <mxGeometry x="0.4731" y="1" relative="1" as="geometry">
            <mxPoint as="offset" />
          </mxGeometry>
        </mxCell>
        <mxCell id="2BTnEX2r1UXNy-jf5gfW-14" value="receivesFunding" style="rhombus;whiteSpace=wrap;html=1;" parent="1" vertex="1">
          <mxGeometry x="490" y="-858.9999999999999" width="130" height="108" as="geometry" />
        </mxCell>
        <mxCell id="2BTnEX2r1UXNy-jf5gfW-16" value="" style="endArrow=none;html=1;rounded=0;exitX=0.5;exitY=0;exitDx=0;exitDy=0;" parent="1" source="2BTnEX2r1UXNy-jf5gfW-14" edge="1">
          <mxGeometry width="50" height="50" relative="1" as="geometry">
            <mxPoint x="646.83" y="-873.0899999999999" as="sourcePoint" />
            <mxPoint x="555" y="-1000" as="targetPoint" />
            <Array as="points" />
          </mxGeometry>
        </mxCell>
        <mxCell id="dph8iHrBrkBYRlTdIY49-13" value="M" style="edgeLabel;html=1;align=center;verticalAlign=middle;resizable=0;points=[];" parent="2BTnEX2r1UXNy-jf5gfW-16" vertex="1" connectable="0">
          <mxGeometry x="0.0122" relative="1" as="geometry">
            <mxPoint as="offset" />
          </mxGeometry>
        </mxCell>
        <mxCell id="2BTnEX2r1UXNy-jf5gfW-17" value="" style="endArrow=none;html=1;rounded=0;entryX=0;entryY=0.5;entryDx=0;entryDy=0;exitX=1;exitY=0.5;exitDx=0;exitDy=0;" parent="1" source="2BTnEX2r1UXNy-jf5gfW-18" target="dsyFgQTQzj1wyREyL058-6" edge="1">
          <mxGeometry width="50" height="50" relative="1" as="geometry">
            <mxPoint x="-970" y="-960" as="sourcePoint" />
            <mxPoint x="565" y="-990" as="targetPoint" />
            <Array as="points" />
          </mxGeometry>
        </mxCell>
        <mxCell id="dph8iHrBrkBYRlTdIY49-24" value="M" style="edgeLabel;html=1;align=center;verticalAlign=middle;resizable=0;points=[];" parent="2BTnEX2r1UXNy-jf5gfW-17" vertex="1" connectable="0">
          <mxGeometry x="-0.0345" y="4" relative="1" as="geometry">
            <mxPoint x="1" as="offset" />
          </mxGeometry>
        </mxCell>
        <mxCell id="2BTnEX2r1UXNy-jf5gfW-18" value="haveArea" style="rhombus;whiteSpace=wrap;html=1;" parent="1" vertex="1">
          <mxGeometry x="-1200" y="-800" width="130" height="108" as="geometry" />
        </mxCell>
        <mxCell id="2BTnEX2r1UXNy-jf5gfW-19" value="" style="endArrow=none;html=1;rounded=0;entryX=0;entryY=0.5;entryDx=0;entryDy=0;exitX=0.5;exitY=1;exitDx=0;exitDy=0;" parent="1" source="473TaDn3XzCNETPL2ArG-119" target="2BTnEX2r1UXNy-jf5gfW-18" edge="1">
          <mxGeometry width="50" height="50" relative="1" as="geometry">
            <mxPoint x="-1290" y="-870" as="sourcePoint" />
            <mxPoint x="-1322" y="-1190.77" as="targetPoint" />
            <Array as="points">
              <mxPoint x="-1370" y="-746" />
            </Array>
          </mxGeometry>
        </mxCell>
        <mxCell id="dph8iHrBrkBYRlTdIY49-23" value="1" style="edgeLabel;html=1;align=center;verticalAlign=middle;resizable=0;points=[];" parent="2BTnEX2r1UXNy-jf5gfW-19" vertex="1" connectable="0">
          <mxGeometry x="0.4569" y="4" relative="1" as="geometry">
            <mxPoint x="-81" y="-127" as="offset" />
          </mxGeometry>
        </mxCell>
        <mxCell id="2BTnEX2r1UXNy-jf5gfW-20" value="hasLocationType" style="rhombus;whiteSpace=wrap;html=1;" parent="1" vertex="1">
          <mxGeometry x="663.67" y="-562.9999999999999" width="130" height="108" as="geometry" />
        </mxCell>
        <mxCell id="2BTnEX2r1UXNy-jf5gfW-21" value="" style="endArrow=none;html=1;rounded=0;" parent="1" edge="1">
          <mxGeometry width="50" height="50" relative="1" as="geometry">
            <mxPoint x="790" y="-509.77" as="sourcePoint" />
            <mxPoint x="1000" y="-510" as="targetPoint" />
            <Array as="points" />
          </mxGeometry>
        </mxCell>
        <mxCell id="dph8iHrBrkBYRlTdIY49-3" value="1" style="edgeLabel;html=1;align=center;verticalAlign=middle;resizable=0;points=[];" parent="2BTnEX2r1UXNy-jf5gfW-21" vertex="1" connectable="0">
          <mxGeometry x="0.0889" y="-1" relative="1" as="geometry">
            <mxPoint as="offset" />
          </mxGeometry>
        </mxCell>
        <mxCell id="2BTnEX2r1UXNy-jf5gfW-22" value="hasHealthRecords" style="rhombus;whiteSpace=wrap;html=1;" parent="1" vertex="1">
          <mxGeometry x="565.67" y="-299.9999999999999" width="130" height="108" as="geometry" />
        </mxCell>
        <mxCell id="2BTnEX2r1UXNy-jf5gfW-23" value="" style="endArrow=none;html=1;rounded=0;" parent="1" edge="1">
          <mxGeometry width="50" height="50" relative="1" as="geometry">
            <mxPoint x="695.67" y="-246.54" as="sourcePoint" />
            <mxPoint x="920" y="-247" as="targetPoint" />
            <Array as="points" />
          </mxGeometry>
        </mxCell>
        <mxCell id="dph8iHrBrkBYRlTdIY49-32" value="M" style="edgeLabel;html=1;align=center;verticalAlign=middle;resizable=0;points=[];" parent="2BTnEX2r1UXNy-jf5gfW-23" vertex="1" connectable="0">
          <mxGeometry x="-0.0099" y="-3" relative="1" as="geometry">
            <mxPoint as="offset" />
          </mxGeometry>
        </mxCell>
        <mxCell id="2BTnEX2r1UXNy-jf5gfW-25" value="&lt;b&gt;&lt;font style=&quot;font-size: 14px;&quot;&gt;hasFacilities&lt;/font&gt;&lt;/b&gt;" style="rhombus;whiteSpace=wrap;html=1;" parent="1" vertex="1">
          <mxGeometry x="139.99999999999997" y="-158.9999999999999" width="130" height="108" as="geometry" />
        </mxCell>
        <mxCell id="2BTnEX2r1UXNy-jf5gfW-26" value="" style="endArrow=none;html=1;rounded=0;entryX=0.444;entryY=-0.001;entryDx=0;entryDy=0;entryPerimeter=0;exitX=0.5;exitY=1;exitDx=0;exitDy=0;" parent="1" source="2BTnEX2r1UXNy-jf5gfW-25" target="473TaDn3XzCNETPL2ArG-125" edge="1">
          <mxGeometry width="50" height="50" relative="1" as="geometry">
            <mxPoint x="200" y="-10" as="sourcePoint" />
            <mxPoint x="205" y="56" as="targetPoint" />
            <Array as="points" />
          </mxGeometry>
        </mxCell>
        <mxCell id="dph8iHrBrkBYRlTdIY49-9" value="M" style="edgeLabel;html=1;align=center;verticalAlign=middle;resizable=0;points=[];" parent="2BTnEX2r1UXNy-jf5gfW-26" vertex="1" connectable="0">
          <mxGeometry x="-0.0061" y="1" relative="1" as="geometry">
            <mxPoint y="-1" as="offset" />
          </mxGeometry>
        </mxCell>
        <mxCell id="2BTnEX2r1UXNy-jf5gfW-27" value="hasLocationDetails" style="rhombus;whiteSpace=wrap;html=1;" parent="1" vertex="1">
          <mxGeometry x="-225.00000000000003" y="-299.9999999999999" width="130" height="108" as="geometry" />
        </mxCell>
        <mxCell id="2BTnEX2r1UXNy-jf5gfW-28" value="" style="endArrow=none;html=1;rounded=0;exitX=0;exitY=0.5;exitDx=0;exitDy=0;" parent="1" source="2BTnEX2r1UXNy-jf5gfW-27" edge="1">
          <mxGeometry width="50" height="50" relative="1" as="geometry">
            <mxPoint x="214.09000000000012" y="-41.000000000000114" as="sourcePoint" />
            <mxPoint x="-410" y="-246" as="targetPoint" />
            <Array as="points" />
          </mxGeometry>
        </mxCell>
        <mxCell id="dph8iHrBrkBYRlTdIY49-28" value="M" style="edgeLabel;html=1;align=center;verticalAlign=middle;resizable=0;points=[];" parent="2BTnEX2r1UXNy-jf5gfW-28" vertex="1" connectable="0">
          <mxGeometry x="-0.0044" y="-1" relative="1" as="geometry">
            <mxPoint x="1" as="offset" />
          </mxGeometry>
        </mxCell>
        <mxCell id="2BTnEX2r1UXNy-jf5gfW-29" value="hasExpenditure" style="rhombus;whiteSpace=wrap;html=1;" parent="1" vertex="1">
          <mxGeometry x="-560" y="-799.9999999999999" width="130" height="108" as="geometry" />
        </mxCell>
        <mxCell id="2BTnEX2r1UXNy-jf5gfW-30" value="" style="endArrow=none;html=1;rounded=0;exitX=0;exitY=0.5;exitDx=0;exitDy=0;entryX=1;entryY=0.5;entryDx=0;entryDy=0;" parent="1" target="dsyFgQTQzj1wyREyL058-6" edge="1">
          <mxGeometry width="50" height="50" relative="1" as="geometry">
            <mxPoint x="-560" y="-746.9100000000001" as="sourcePoint" />
            <mxPoint x="-800" y="-747" as="targetPoint" />
            <Array as="points" />
          </mxGeometry>
        </mxCell>
        <mxCell id="dph8iHrBrkBYRlTdIY49-21" value="M" style="edgeLabel;html=1;align=center;verticalAlign=middle;resizable=0;points=[];" parent="2BTnEX2r1UXNy-jf5gfW-30" vertex="1" connectable="0">
          <mxGeometry x="0.0301" y="2" relative="1" as="geometry">
            <mxPoint x="-1" as="offset" />
          </mxGeometry>
        </mxCell>
        <mxCell id="2BTnEX2r1UXNy-jf5gfW-31" value="hasLocation" style="rhombus;whiteSpace=wrap;html=1;" parent="1" vertex="1">
          <mxGeometry x="-415.34000000000003" y="-549.9999999999999" width="130" height="108" as="geometry" />
        </mxCell>
        <mxCell id="2BTnEX2r1UXNy-jf5gfW-32" value="" style="endArrow=none;html=1;rounded=0;exitX=0;exitY=0.5;exitDx=0;exitDy=0;" parent="1" edge="1">
          <mxGeometry width="50" height="50" relative="1" as="geometry">
            <mxPoint x="-415.34000000000003" y="-496.91" as="sourcePoint" />
            <mxPoint x="-600.34" y="-496.91" as="targetPoint" />
            <Array as="points" />
          </mxGeometry>
        </mxCell>
        <mxCell id="dph8iHrBrkBYRlTdIY49-1" value="1" style="edgeLabel;html=1;align=center;verticalAlign=middle;resizable=0;points=[];" parent="2BTnEX2r1UXNy-jf5gfW-32" vertex="1" connectable="0">
          <mxGeometry x="-0.0345" y="1" relative="1" as="geometry">
            <mxPoint as="offset" />
          </mxGeometry>
        </mxCell>
        <mxCell id="2BTnEX2r1UXNy-jf5gfW-35" value="" style="endArrow=none;html=1;rounded=0;entryX=0.5;entryY=1;entryDx=0;entryDy=0;" parent="1" target="473TaDn3XzCNETPL2ArG-67" edge="1">
          <mxGeometry width="50" height="50" relative="1" as="geometry">
            <mxPoint x="-469" y="390" as="sourcePoint" />
            <mxPoint x="-400" y="-236" as="targetPoint" />
            <Array as="points" />
          </mxGeometry>
        </mxCell>
        <mxCell id="dph8iHrBrkBYRlTdIY49-34" value="M" style="edgeLabel;html=1;align=center;verticalAlign=middle;resizable=0;points=[];" parent="2BTnEX2r1UXNy-jf5gfW-35" vertex="1" connectable="0">
          <mxGeometry x="0.0016" relative="1" as="geometry">
            <mxPoint y="-7" as="offset" />
          </mxGeometry>
        </mxCell>
        <mxCell id="2BTnEX2r1UXNy-jf5gfW-36" value="hasAnimal" style="rhombus;whiteSpace=wrap;html=1;" parent="1" vertex="1">
          <mxGeometry x="-534.33" y="380.0000000000001" width="130" height="108" as="geometry" />
        </mxCell>
        <mxCell id="2BTnEX2r1UXNy-jf5gfW-37" value="" style="endArrow=none;html=1;rounded=0;entryX=1;entryY=0.5;entryDx=0;entryDy=0;exitX=0;exitY=0.25;exitDx=0;exitDy=0;" parent="1" source="473TaDn3XzCNETPL2ArG-43" target="2BTnEX2r1UXNy-jf5gfW-36" edge="1">
          <mxGeometry width="50" height="50" relative="1" as="geometry">
            <mxPoint x="70" y="440" as="sourcePoint" />
            <mxPoint x="-370" y="439" as="targetPoint" />
            <Array as="points" />
          </mxGeometry>
        </mxCell>
        <mxCell id="dph8iHrBrkBYRlTdIY49-33" value="1" style="edgeLabel;html=1;align=center;verticalAlign=middle;resizable=0;points=[];" parent="2BTnEX2r1UXNy-jf5gfW-37" vertex="1" connectable="0">
          <mxGeometry x="-0.0103" y="2" relative="1" as="geometry">
            <mxPoint as="offset" />
          </mxGeometry>
        </mxCell>
        <mxCell id="2BTnEX2r1UXNy-jf5gfW-39" value="M" style="endArrow=none;html=1;rounded=0;entryX=0.5;entryY=1;entryDx=0;entryDy=0;exitX=0.5;exitY=0;exitDx=0;exitDy=0;" parent="1" source="2BTnEX2r1UXNy-jf5gfW-41" target="dOKvvRetDitsmnMjPRdH-15" edge="1">
          <mxGeometry width="50" height="50" relative="1" as="geometry">
            <mxPoint x="980" y="390" as="sourcePoint" />
            <mxPoint x="930" y="-237" as="targetPoint" />
            <Array as="points" />
          </mxGeometry>
        </mxCell>
        <mxCell id="2BTnEX2r1UXNy-jf5gfW-40" value="1" style="endArrow=none;html=1;rounded=0;entryX=0;entryY=0.5;entryDx=0;entryDy=0;" parent="1" target="2BTnEX2r1UXNy-jf5gfW-41" edge="1">
          <mxGeometry x="-0.001" width="50" height="50" relative="1" as="geometry">
            <mxPoint x="200" y="445" as="sourcePoint" />
            <mxPoint x="840" y="445" as="targetPoint" />
            <mxPoint as="offset" />
          </mxGeometry>
        </mxCell>
        <mxCell id="2BTnEX2r1UXNy-jf5gfW-41" value="hasMedicalRecords" style="rhombus;whiteSpace=wrap;html=1;" parent="1" vertex="1">
          <mxGeometry x="915" y="397.0000000000001" width="130" height="108" as="geometry" />
        </mxCell>
        <mxCell id="2BTnEX2r1UXNy-jf5gfW-42" value="" style="endArrow=none;html=1;rounded=0;exitX=0.5;exitY=1;exitDx=0;exitDy=0;edgeStyle=orthogonalEdgeStyle;entryX=1;entryY=0.5;entryDx=0;entryDy=0;" parent="1" source="473TaDn3XzCNETPL2ArG-43" target="2BTnEX2r1UXNy-jf5gfW-44" edge="1">
          <mxGeometry width="50" height="50" relative="1" as="geometry">
            <mxPoint x="90" y="445" as="sourcePoint" />
            <mxPoint x="-140" y="810" as="targetPoint" />
            <Array as="points">
              <mxPoint x="140" y="735" />
            </Array>
          </mxGeometry>
        </mxCell>
        <mxCell id="dph8iHrBrkBYRlTdIY49-18" value="1" style="edgeLabel;html=1;align=center;verticalAlign=middle;resizable=0;points=[];" parent="2BTnEX2r1UXNy-jf5gfW-42" vertex="1" connectable="0">
          <mxGeometry x="0.5515" y="3" relative="1" as="geometry">
            <mxPoint x="1" as="offset" />
          </mxGeometry>
        </mxCell>
        <mxCell id="2BTnEX2r1UXNy-jf5gfW-43" value="" style="endArrow=none;html=1;rounded=0;exitX=0.75;exitY=1;exitDx=0;exitDy=0;edgeStyle=orthogonalEdgeStyle;entryX=0;entryY=0.5;entryDx=0;entryDy=0;" parent="1" source="473TaDn3XzCNETPL2ArG-43" target="2BTnEX2r1UXNy-jf5gfW-49" edge="1">
          <mxGeometry width="50" height="50" relative="1" as="geometry">
            <mxPoint x="150" y="490" as="sourcePoint" />
            <mxPoint x="420" y="760" as="targetPoint" />
            <Array as="points">
              <mxPoint x="170" y="735" />
            </Array>
          </mxGeometry>
        </mxCell>
        <mxCell id="dph8iHrBrkBYRlTdIY49-6" value="M" style="edgeLabel;html=1;align=center;verticalAlign=middle;resizable=0;points=[];" parent="2BTnEX2r1UXNy-jf5gfW-43" vertex="1" connectable="0">
          <mxGeometry x="0.2777" relative="1" as="geometry">
            <mxPoint as="offset" />
          </mxGeometry>
        </mxCell>
        <mxCell id="2BTnEX2r1UXNy-jf5gfW-44" value="migrates" style="rhombus;whiteSpace=wrap;html=1;" parent="1" vertex="1">
          <mxGeometry x="-210.00000000000006" y="681.0000000000001" width="130" height="108" as="geometry" />
        </mxCell>
        <mxCell id="2BTnEX2r1UXNy-jf5gfW-46" value="M" style="endArrow=none;html=1;rounded=0;entryX=0;entryY=0.5;entryDx=0;entryDy=0;exitX=1;exitY=0.5;exitDx=0;exitDy=0;" parent="1" source="dOKvvRetDitsmnMjPRdH-35" target="2BTnEX2r1UXNy-jf5gfW-44" edge="1">
          <mxGeometry width="50" height="50" relative="1" as="geometry">
            <mxPoint x="-380" y="735" as="sourcePoint" />
            <mxPoint x="-395" y="450" as="targetPoint" />
            <Array as="points" />
          </mxGeometry>
        </mxCell>
        <mxCell id="2BTnEX2r1UXNy-jf5gfW-49" value="hasStatus" style="rhombus;whiteSpace=wrap;html=1;" parent="1" vertex="1">
          <mxGeometry x="458.1599999999999" y="681.0000000000001" width="130" height="108" as="geometry" />
        </mxCell>
        <mxCell id="2BTnEX2r1UXNy-jf5gfW-51" value="" style="endArrow=none;html=1;rounded=0;entryX=1;entryY=0.5;entryDx=0;entryDy=0;" parent="1" target="2BTnEX2r1UXNy-jf5gfW-49" edge="1">
          <mxGeometry width="50" height="50" relative="1" as="geometry">
            <mxPoint x="830" y="735" as="sourcePoint" />
            <mxPoint x="-200" y="745" as="targetPoint" />
            <Array as="points" />
          </mxGeometry>
        </mxCell>
        <mxCell id="dph8iHrBrkBYRlTdIY49-7" value="1" style="edgeLabel;html=1;align=center;verticalAlign=middle;resizable=0;points=[];" parent="2BTnEX2r1UXNy-jf5gfW-51" vertex="1" connectable="0">
          <mxGeometry x="-0.036" relative="1" as="geometry">
            <mxPoint x="1" as="offset" />
          </mxGeometry>
        </mxCell>
        <mxCell id="2BTnEX2r1UXNy-jf5gfW-52" value="" style="endArrow=none;html=1;rounded=0;entryX=0;entryY=0.5;entryDx=0;entryDy=0;edgeStyle=orthogonalEdgeStyle;exitX=0.5;exitY=0;exitDx=0;exitDy=0;" parent="1" source="2BTnEX2r1UXNy-jf5gfW-53" edge="1">
          <mxGeometry width="50" height="50" relative="1" as="geometry">
            <mxPoint x="780" y="-100" as="sourcePoint" />
            <mxPoint x="920" y="-230" as="targetPoint" />
            <Array as="points">
              <mxPoint x="718" y="-230" />
            </Array>
          </mxGeometry>
        </mxCell>
        <mxCell id="dph8iHrBrkBYRlTdIY49-20" value="M" style="edgeLabel;html=1;align=center;verticalAlign=middle;resizable=0;points=[];" parent="2BTnEX2r1UXNy-jf5gfW-52" vertex="1" connectable="0">
          <mxGeometry x="-0.5619" y="-1" relative="1" as="geometry">
            <mxPoint as="offset" />
          </mxGeometry>
        </mxCell>
        <mxCell id="2BTnEX2r1UXNy-jf5gfW-53" value="has details about" style="rhombus;whiteSpace=wrap;html=1;" parent="1" vertex="1">
          <mxGeometry x="653.16" y="-76.99999999999989" width="130" height="108" as="geometry" />
        </mxCell>
        <mxCell id="2BTnEX2r1UXNy-jf5gfW-54" value="" style="endArrow=none;html=1;rounded=0;entryX=0.5;entryY=1;entryDx=0;entryDy=0;exitX=0.134;exitY=0.02;exitDx=0;exitDy=0;exitPerimeter=0;" parent="1" source="dOKvvRetDitsmnMjPRdH-56" target="2BTnEX2r1UXNy-jf5gfW-53" edge="1">
          <mxGeometry width="50" height="50" relative="1" as="geometry">
            <mxPoint x="718" y="180" as="sourcePoint" />
            <mxPoint x="778" y="179" as="targetPoint" />
          </mxGeometry>
        </mxCell>
        <mxCell id="dph8iHrBrkBYRlTdIY49-19" value="!" style="edgeLabel;html=1;align=center;verticalAlign=middle;resizable=0;points=[];" parent="2BTnEX2r1UXNy-jf5gfW-54" vertex="1" connectable="0">
          <mxGeometry x="0.0484" y="1" relative="1" as="geometry">
            <mxPoint y="1" as="offset" />
          </mxGeometry>
        </mxCell>
        <mxCell id="2HEuMlSUGqO9Uci1BNy_-4" value="" style="edgeStyle=orthogonalEdgeStyle;rounded=0;orthogonalLoop=1;jettySize=auto;html=1;exitX=0;exitY=1;exitDx=0;exitDy=0;endArrow=none;endFill=0;" parent="1" source="473TaDn3XzCNETPL2ArG-11" target="2HEuMlSUGqO9Uci1BNy_-3" edge="1">
          <mxGeometry relative="1" as="geometry">
            <mxPoint x="-535" y="735" as="targetPoint" />
            <mxPoint x="138" y="-490" as="sourcePoint" />
            <Array as="points">
              <mxPoint x="-130" y="-490" />
              <mxPoint x="-130" y="-400" />
              <mxPoint x="-710" y="-400" />
              <mxPoint x="-710" y="-40" />
              <mxPoint x="-1250" y="-40" />
            </Array>
          </mxGeometry>
        </mxCell>
        <mxCell id="dph8iHrBrkBYRlTdIY49-25" value="1" style="edgeLabel;html=1;align=center;verticalAlign=middle;resizable=0;points=[];" parent="2HEuMlSUGqO9Uci1BNy_-4" vertex="1" connectable="0">
          <mxGeometry x="0.6077" y="5" relative="1" as="geometry">
            <mxPoint as="offset" />
          </mxGeometry>
        </mxCell>
        <mxCell id="dph8iHrBrkBYRlTdIY49-26" value="1" style="edgeLabel;html=1;align=center;verticalAlign=middle;resizable=0;points=[];" parent="2HEuMlSUGqO9Uci1BNy_-4" vertex="1" connectable="0">
          <mxGeometry x="0.6077" y="3" relative="1" as="geometry">
            <mxPoint as="offset" />
          </mxGeometry>
        </mxCell>
        <mxCell id="2HEuMlSUGqO9Uci1BNy_-3" value="hasFrom" style="rhombus;whiteSpace=wrap;html=1;" parent="1" vertex="1">
          <mxGeometry x="-1300" y="73.91" width="100" height="106.09" as="geometry" />
        </mxCell>
        <mxCell id="cV05GgvHvw3t-ER_H0-z-1" value="" style="edgeStyle=orthogonalEdgeStyle;rounded=0;orthogonalLoop=1;jettySize=auto;html=1;endArrow=none;endFill=0;entryX=0.5;entryY=0;entryDx=0;entryDy=0;" parent="1" target="cV05GgvHvw3t-ER_H0-z-4" edge="1">
          <mxGeometry relative="1" as="geometry">
            <mxPoint x="-1190" y="30" as="targetPoint" />
            <mxPoint x="140" y="-490" as="sourcePoint" />
            <Array as="points">
              <mxPoint x="140" y="-480" />
              <mxPoint x="-120" y="-480" />
              <mxPoint x="-120" y="-390" />
              <mxPoint x="-700" y="-390" />
              <mxPoint x="-700" y="-30" />
              <mxPoint x="-1135" y="-30" />
            </Array>
          </mxGeometry>
        </mxCell>
        <mxCell id="cV05GgvHvw3t-ER_H0-z-2" value="1" style="edgeLabel;html=1;align=center;verticalAlign=middle;resizable=0;points=[];" parent="cV05GgvHvw3t-ER_H0-z-1" vertex="1" connectable="0">
          <mxGeometry x="0.6077" y="5" relative="1" as="geometry">
            <mxPoint as="offset" />
          </mxGeometry>
        </mxCell>
        <mxCell id="cV05GgvHvw3t-ER_H0-z-3" value="1" style="edgeLabel;html=1;align=center;verticalAlign=middle;resizable=0;points=[];" parent="cV05GgvHvw3t-ER_H0-z-1" vertex="1" connectable="0">
          <mxGeometry x="0.6077" y="3" relative="1" as="geometry">
            <mxPoint as="offset" />
          </mxGeometry>
        </mxCell>
        <mxCell id="cV05GgvHvw3t-ER_H0-z-4" value="hasTo" style="rhombus;whiteSpace=wrap;html=1;" parent="1" vertex="1">
          <mxGeometry x="-1185" y="73.91" width="100" height="106.09" as="geometry" />
        </mxCell>
        <mxCell id="cV05GgvHvw3t-ER_H0-z-5" style="edgeStyle=orthogonalEdgeStyle;rounded=0;orthogonalLoop=1;jettySize=auto;html=1;entryX=0;entryY=0.75;entryDx=0;entryDy=0;exitX=0.5;exitY=1;exitDx=0;exitDy=0;endArrow=none;endFill=0;" parent="1" source="cV05GgvHvw3t-ER_H0-z-4" target="dOKvvRetDitsmnMjPRdH-35" edge="1">
          <mxGeometry relative="1" as="geometry">
            <mxPoint x="-415.34000000000003" y="786" as="targetPoint" />
            <mxPoint x="-1130.34" y="231" as="sourcePoint" />
            <Array as="points">
              <mxPoint x="-1135" y="750" />
            </Array>
          </mxGeometry>
        </mxCell>
        <mxCell id="cV05GgvHvw3t-ER_H0-z-6" value="M" style="edgeLabel;html=1;align=center;verticalAlign=middle;resizable=0;points=[];" parent="cV05GgvHvw3t-ER_H0-z-5" vertex="1" connectable="0">
          <mxGeometry x="-0.5199" relative="1" as="geometry">
            <mxPoint as="offset" />
          </mxGeometry>
        </mxCell>
        <mxCell id="N5x266UMVkHs0VyyLRwH-1" value="" style="endArrow=none;dashed=1;html=1;rounded=0;" parent="1" edge="1">
          <mxGeometry width="50" height="50" relative="1" as="geometry">
            <mxPoint x="-850" y="-640" as="sourcePoint" />
            <mxPoint x="-780" y="-640" as="targetPoint" />
          </mxGeometry>
        </mxCell>
        <mxCell id="N5x266UMVkHs0VyyLRwH-2" value="" style="endArrow=none;dashed=1;html=1;rounded=0;" parent="1" edge="1">
          <mxGeometry width="50" height="50" relative="1" as="geometry">
            <mxPoint x="345.66999999999996" y="-570.71" as="sourcePoint" />
            <mxPoint x="415.66999999999996" y="-570.71" as="targetPoint" />
          </mxGeometry>
        </mxCell>
        <mxCell id="N5x266UMVkHs0VyyLRwH-3" value="" style="endArrow=none;dashed=1;html=1;rounded=0;" parent="1" edge="1">
          <mxGeometry width="50" height="50" relative="1" as="geometry">
            <mxPoint x="345.66999999999996" y="-450.00000000000006" as="sourcePoint" />
            <mxPoint x="415.66999999999996" y="-450.00000000000006" as="targetPoint" />
          </mxGeometry>
        </mxCell>
        <mxCell id="N5x266UMVkHs0VyyLRwH-4" value="" style="endArrow=none;dashed=1;html=1;rounded=0;" parent="1" edge="1">
          <mxGeometry width="50" height="50" relative="1" as="geometry">
            <mxPoint x="49.99999999999994" y="603.5699999999999" as="sourcePoint" />
            <mxPoint x="119.99999999999994" y="603.5699999999999" as="targetPoint" />
          </mxGeometry>
        </mxCell>
        <mxCell id="N5x266UMVkHs0VyyLRwH-5" value="" style="endArrow=none;dashed=1;html=1;rounded=0;" parent="1" edge="1">
          <mxGeometry width="50" height="50" relative="1" as="geometry">
            <mxPoint x="-445.33000000000004" y="-327.7700000000001" as="sourcePoint" />
            <mxPoint x="-375.33000000000004" y="-327.7700000000001" as="targetPoint" />
          </mxGeometry>
        </mxCell>
        <mxCell id="N5x266UMVkHs0VyyLRwH-6" value="" style="endArrow=none;dashed=1;html=1;rounded=0;" parent="1" edge="1">
          <mxGeometry width="50" height="50" relative="1" as="geometry">
            <mxPoint x="-670" y="-230.0000000000001" as="sourcePoint" />
            <mxPoint x="-600" y="-230.0000000000001" as="targetPoint" />
          </mxGeometry>
        </mxCell>
        <mxCell id="N5x266UMVkHs0VyyLRwH-7" value="" style="endArrow=none;dashed=1;html=1;rounded=0;" parent="1" edge="1">
          <mxGeometry width="50" height="50" relative="1" as="geometry">
            <mxPoint x="329.33000000000004" y="109.99999999999989" as="sourcePoint" />
            <mxPoint x="399.33000000000004" y="109.99999999999989" as="targetPoint" />
          </mxGeometry>
        </mxCell>
        <mxCell id="N5x266UMVkHs0VyyLRwH-8" value="" style="endArrow=none;dashed=1;html=1;rounded=0;" parent="1" edge="1">
          <mxGeometry width="50" height="50" relative="1" as="geometry">
            <mxPoint x="358" y="-1140.0000000000002" as="sourcePoint" />
            <mxPoint x="428" y="-1140.0000000000002" as="targetPoint" />
          </mxGeometry>
        </mxCell>
        <mxCell id="N5x266UMVkHs0VyyLRwH-9" value="" style="endArrow=none;dashed=1;html=1;rounded=0;" parent="1" edge="1">
          <mxGeometry width="50" height="50" relative="1" as="geometry">
            <mxPoint x="-295.00000000000006" y="-1034.4900000000002" as="sourcePoint" />
            <mxPoint x="-225.00000000000003" y="-1034.4900000000002" as="targetPoint" />
          </mxGeometry>
        </mxCell>
        <mxCell id="N5x266UMVkHs0VyyLRwH-10" value="" style="endArrow=none;dashed=1;html=1;rounded=0;" parent="1" edge="1">
          <mxGeometry width="50" height="50" relative="1" as="geometry">
            <mxPoint x="1040" y="-350.0000000000002" as="sourcePoint" />
            <mxPoint x="1110" y="-350.0000000000002" as="targetPoint" />
          </mxGeometry>
        </mxCell>
        <mxCell id="N5x266UMVkHs0VyyLRwH-11" value="" style="endArrow=none;dashed=1;html=1;rounded=0;" parent="1" edge="1">
          <mxGeometry width="50" height="50" relative="1" as="geometry">
            <mxPoint x="1105" y="-270.9100000000002" as="sourcePoint" />
            <mxPoint x="1175" y="-270.9100000000002" as="targetPoint" />
          </mxGeometry>
        </mxCell>
        <mxCell id="N5x266UMVkHs0VyyLRwH-12" value="" style="endArrow=none;dashed=1;html=1;rounded=0;" parent="1" edge="1">
          <mxGeometry width="50" height="50" relative="1" as="geometry">
            <mxPoint x="-414.9999999999999" y="634.5499999999998" as="sourcePoint" />
            <mxPoint x="-344.9999999999999" y="634.5499999999998" as="targetPoint" />
          </mxGeometry>
        </mxCell>
        <mxCell id="N5x266UMVkHs0VyyLRwH-13" value="" style="endArrow=none;dashed=1;html=1;rounded=0;" parent="1" edge="1">
          <mxGeometry width="50" height="50" relative="1" as="geometry">
            <mxPoint x="-369.9999999999999" y="814.9999999999998" as="sourcePoint" />
            <mxPoint x="-299.9999999999999" y="814.9999999999998" as="targetPoint" />
          </mxGeometry>
        </mxCell>
        <mxCell id="N5x266UMVkHs0VyyLRwH-14" value="" style="endArrow=none;dashed=1;html=1;rounded=0;" parent="1" edge="1">
          <mxGeometry width="50" height="50" relative="1" as="geometry">
            <mxPoint x="-459.9999999999999" y="879.9999999999998" as="sourcePoint" />
            <mxPoint x="-389.9999999999999" y="879.9999999999998" as="targetPoint" />
          </mxGeometry>
        </mxCell>
        <mxCell id="N5x266UMVkHs0VyyLRwH-15" value="" style="endArrow=none;dashed=1;html=1;rounded=0;" parent="1" edge="1">
          <mxGeometry width="50" height="50" relative="1" as="geometry">
            <mxPoint x="-769.9999999999999" y="-805.4000000000002" as="sourcePoint" />
            <mxPoint x="-699.9999999999999" y="-805.4000000000002" as="targetPoint" />
          </mxGeometry>
        </mxCell>
        <mxCell id="IhaJU9d_QZ5e6gBmyTUa-2" value="" style="endArrow=none;dashed=1;html=1;dashPattern=1 3;strokeWidth=2;rounded=0;entryX=0.889;entryY=0.667;entryDx=0;entryDy=0;entryPerimeter=0;exitX=0.111;exitY=0.667;exitDx=0;exitDy=0;exitPerimeter=0;" edge="1" parent="1" source="dOKvvRetDitsmnMjPRdH-32" target="dOKvvRetDitsmnMjPRdH-32">
          <mxGeometry width="50" height="50" relative="1" as="geometry">
            <mxPoint x="770" y="-260" as="sourcePoint" />
            <mxPoint x="820" y="-310" as="targetPoint" />
          </mxGeometry>
        </mxCell>
      </root>
    </mxGraphModel>
  </diagram>
</mxfile>
